<?xml version="1.0" encoding="UTF-8"?>
<svg id="Layer_1" data-name="Layer 1" xmlns="http://www.w3.org/2000/svg" viewBox="0 0 866 237">
  <defs>
    <style>
      .cls-1 {
        fill: #f39e00;
      }

      .cls-2 {
        fill: #ecd147;
      }

      .cls-3 {
        fill: #fff19e;
      }

      .cls-4 {
        fill: #fff5aa;
      }

      .cls-5 {
        fill: #ff9c00;
      }

      .cls-6 {
        fill: #faea8b;
      }

      .cls-7 {
        fill: #faea8f;
      }

      .cls-8 {
        fill: #fbf6ce;
      }

      .cls-9 {
        fill: #fae475;
      }

      .cls-10 {
        fill: #fdfefd;
      }

      .cls-11 {
        fill: #8a96a0;
      }

      .cls-12 {
        fill: #c2f1c1;
      }

      .cls-13 {
        fill: #e0f8e0;
      }

      .cls-14 {
        fill: #48568c;
      }

      .cls-15 {
        fill: #6069a2;
      }

      .cls-16 {
        fill: #7773d4;
      }

      .cls-17 {
        fill: #525e9b;
      }
    </style>
  </defs>
  <path class="cls-17" d="m57.92,207.71c-13.4-8.09-22.86-19.33-28.42-34.09-2.61-6.94-3.64-13.93-3.61-21.21.03-10.44.06-20.89.1-31.33.17.67.42,1.33.5,2.02,1.68,14.11,7.4,26.44,16.98,36.82,12.91,13.98,29.21,20.93,48.13,21.35,15.15.33,30.31.02,45.47.11,2.65.02,3.5-.9,3.46-3.5-.12-7.02-.03-14.05-.02-21.08,2.61-.09,5.21-.18,7.82-.27,1,.09,1.99.19,2.99.28,0,6.93.13,13.86-.03,20.78-.07,2.89.88,3.83,3.78,3.8,12.45-.13,24.9-.06,37.35-.06.17,1.29.31,2.59.51,3.87.83,5.5,4.93,9.53,10.44,10.62,7.61,1.5,16.38-4.52,15.58-14.47,20.45,0,40.9-.06,61.34.03,2.9.01,3.84-.91,3.77-3.79-.16-6.81-.04-13.63-.03-20.45.43-.02.87-.04,1.3-.07,1.75,0,3.5,0,5.25,0,.52,0,1.03,0,1.55.01.9.07,1.8.13,2.7.2.01,6.72.16,13.44-.02,20.15-.08,3.03.88,3.98,3.93,3.96,15.14-.12,30.28-.04,45.42-.03.03.6.06,1.2.08,1.8.27,8.5,7.37,14.22,15.66,12.61,6.44-1.25,10.17-6.39,10.46-14.42,17.87,0,35.75-.07,53.62.02,2.79.01,3.68-.91,3.62-3.65-.16-6.82-.07-13.65-.08-20.48.32-.06.63-.13.95-.19,1.11,0,2.22.01,3.33.02,2.2.07,4.4.14,6.6.2,0,6.62,0,13.25,0,19.87,0,4.16.01,4.17,4.19,4.17,17.66.01,35.33.02,52.99.03.02.6.05,1.2.06,1.8.2,8.35,7.47,14.18,15.75,12.61,6.5-1.23,10.07-6.2,10.37-14.41,15.24-.01,30.48-.07,45.71.02,2.74.02,3.71-.83,3.65-3.62-.15-6.81-.04-13.63-.03-20.45,2.82-.07,5.63-.14,8.45-.2.79.03,1.58.06,2.38.1,0,6.63,0,13.27.01,19.9,0,4.21.01,4.22,4.16,4.22,20.3.01,40.6.01,60.91.02.01.5.02,1,.04,1.5.19,7.41,5.53,12.9,12.85,13.22,6.77.29,12.23-4.56,13.23-11.77.14-.99.28-1.98.41-2.98,12.54,0,25.09-.05,37.63.05,2.6.02,3.55-.82,3.5-3.46-.13-7.02-.03-14.05-.02-21.07l4.79-.3c2.01.08,4.01.16,6.02.24,0,6.93.12,13.86-.03,20.78-.06,2.85.82,3.85,3.75,3.83,14.46-.12,28.91.04,43.37-.11,4.49-.05,9.06-.35,13.43-1.3,27.52-5.92,44.85-22.69,52.22-49.79.81-2.98,1.19-6.07,1.77-9.11.02,11.65.16,23.3,0,34.95-.05,4.08-.44,8.23-1.35,12.19-.69,3.02-2.29,5.88-3.75,8.67-2.72,5.23-5.4,10.51-8.56,15.48-1.5,2.36-3.96,4.16-6.15,6.02-3.97,3.37-8.06,6.6-12.1,9.88-1.38-.34-2.77-.96-4.15-.96-31.93-.05-63.85-.04-95.78-.04-48.11,0-96.22,0-144.32,0h-288.35c-60.87,0-121.74,0-182.62,0-10.35,0-20.7-.02-31.05.01-1.28,0-2.57.28-3.85.43Z"/>
  <path class="cls-4" d="m764.08,35.45c2.73-.71,1.81,1.13,1.33,2.15-3.09,6.51-5.66,13.38-9.57,19.35-10.37,15.84-24.19,28.07-41.13,36.67-.68.35-1.24.93-1.86,1.4-.01,6.26-.02,12.52-.03,18.78-10.27,0-20.55,0-30.82.01,0-3.62,0-7.24.01-10.85.03-5.54-2.21-10.46-5.06-14.88-4.13-6.41-11.49-6.75-18.1-8.06-1.56-.31-3.45.86-5.14,1.49-4.66,1.74-8.5,4.46-10.7,9.14-.36.78-1.14,1.36-1.58,2.11-.61,1.04-1.51,2.16-1.53,3.26-.13,5.93-.03,11.86-.01,17.78-16.96,0-33.91-.02-50.87.02-1.38,0-2.75.38-4.13.58,1.09-3.2-.58-5.84-1.44-8.77-3.07-10.51-9.59-17.83-19.35-22.48-1.97-.94-3.88-2.59-5.9-2.73-6.37-.43-12.8-.63-19.18-.32-14.13.69-25.05,6.93-30.98,20.1-1.88,4.18-2.22,9.06-3.27,13.62-18.3-.03-36.61-.06-54.91-.09-.2-1.69-.37-3.38-.6-5.06-1.74-12.56-11.83-24.4-24.21-27.02-6.68-1.41-13.71-1.54-20.58-1.55-18.8-.04-33.77,14.85-34.26,33.66-18.68,0-37.35-.02-56.03-.03-.74-8.77-3.76-16.58-10.03-22.87-7.22-7.24-16.26-10.62-26.3-10.75-18.76-.24-37.53-.35-56.29.03-11.8.24-22.21,3.88-29.63,14.18-4.29,5.95-6.86,12.12-6.91,19.39-12.21.02-24.42.04-36.64.06-.73-7.22.31-13.87,6.5-18.92-3.16-1.73-6.05-3.14-8.76-4.83-17.26-10.7-31.11-24.64-40.37-42.86-1.58-3.11-2.66-6.49-3.9-9.77-.39-1.04-.89-2.33,1.19-2,12.05,7.02,24.29,13.75,36.08,21.18,5.45,3.43,10.93,4.18,17.08,4.17,186.97-.08,373.95-.07,560.92-.07,1.81,0,3.64.16,5.42-.05,1.54-.19,3.22-.5,4.51-1.29,11.81-7.25,23.55-14.6,35.28-21.97.7-.44,1.16-1.29,1.72-1.94ZM152.3,63.34c-.08.17-.15.33-.23.5,3.5,2.04,7.13,3.89,10.46,6.18,3.44,2.37,7.09,2.8,11.11,2.81,33.45.11,66.91.36,100.36.54,39.78.22,79.57.4,119.35.61,36.77.19,73.54.4,110.31.6,38.88.21,77.76.45,116.64.59,24.72.09,49.45-.07,74.17.1,4.99.03,9.42-.62,13.55-3.68,3.8-2.82,7.98-5.15,11.99-7.7-.08-.19-.16-.37-.24-.56H152.3Z"/>
  <path class="cls-14" d="m57.92,207.71c1.28-.15,2.57-.42,3.85-.43,10.35-.03,20.7-.01,31.05-.01,60.87,0,121.74,0,182.62,0h288.35c48.11,0,96.22,0,144.32,0,31.93,0,63.85-.02,95.78.04,1.39,0,2.77.63,4.15.96-3.68,1.64-7.29,3.47-11.06,4.87-7.94,2.94-16.18,4.28-24.68,4.28-226-.02-452.01-.02-678.01,0-11.15,0-21.84-2.04-31.96-6.74-1.59-.74-2.95-1.97-4.42-2.97Z"/>
  <path class="cls-7" d="m764.08,35.45c-.57.66-1.02,1.5-1.72,1.94-11.73,7.37-23.47,14.73-35.28,21.97-1.29.79-2.97,1.1-4.51,1.29-1.78.22-3.61.05-5.42.05-186.97,0-373.95-.01-560.92.07-6.15,0-11.63-.74-17.08-4.17-11.79-7.43-24.03-14.16-36.08-21.18,11.35,2.94,22.72,5.86,34.06,8.83,7.86,2.06,15.7,4.2,23.56,6.25,1.35.35,2.76.62,4.14.62,12.94.05,25.88.04,38.82.01.99,0,1.97-.25,2.95-.39,1.24.28,2.48.78,3.73.8,7.02.07,14.05.02,21.07,0,.9.04,1.8.11,2.7.11,31.37,0,62.73,0,94.1,0,1,0,2-.11,3-.17,2.32.02,4.65.04,6.97.06,1.1.04,2.21.11,3.31.11,57.97,0,115.95,0,173.92,0,2.11,0,4.22-.06,6.33-.09l6.94-.11c1.6.07,3.2.2,4.8.2,26.17.01,52.33.02,78.5,0,8.12,0,16.24-.07,24.36-.11,2.5,0,5.01.11,7.5,0,5.77-.23,11.54-.56,17.31-.84,1.28.15,2.57.41,3.85.42,11.14.03,22.28.17,33.41-.06,4.26-.09,8.6-.65,12.72-1.7,17.69-4.5,35.31-9.26,52.96-13.92Z"/>
  <path class="cls-15" d="m839.94,121.07c-.58,3.04-.96,6.14-1.77,9.11-7.37,27.1-24.7,43.87-52.22,49.79-4.37.94-8.94,1.25-13.43,1.3-14.46.16-28.91,0-43.37.11-2.94.02-3.82-.97-3.75-3.83.16-6.92.04-13.85.03-20.78,23.81-.03,47.63,0,71.44-.19,2.55-.02,5.48-.84,7.55-2.27,5.14-3.57,5.39-16.56.75-20.81-1.84-1.69-7.34-2.28-9.37-.86-.86.6-1.87,1.5-2.08,2.43-.81,3.63-1.33,7.33-1.96,11-.07.39-.17.76-.32,1.43-5.68-.48-10.74-2.56-14.96-6.06-8.92-7.39-11.78-17.14-9.38-28.3,2.45-11.39,12.3-20.64,24.71-20.88,20.68-.4,41.37-.11,62.13.01-7,1.89-12,6-13.55,13.17-.73,3.37-.26,6.99-.34,10.5-.04,1.71-.06,3.41-.1,5.12Z"/>
  <path class="cls-15" d="m140.5,156.8c0,7.03-.1,14.06.02,21.08.05,2.6-.81,3.52-3.46,3.5-15.16-.1-30.32.22-45.47-.11-18.92-.42-35.22-7.37-48.13-21.35-9.58-10.37-15.3-22.71-16.98-36.82-.08-.68-.33-1.35-.5-2.02-.21-4.69-.37-9.39-.63-14.08-.41-7.29-5.07-11.15-11.26-13.73-.7-.29-1.4-.57-2.03-1.2,1,0,2,0,3,0,18.68,0,37.36-.02,56.04,0,16.61.03,29.08,12.66,28.28,29.19-.67,13.67-10.25,23.36-23.2,25.79-1.99.37-2.64-.23-2.72-2.28-.1-2.64-.52-5.28-1.05-7.87-.82-4.04-3.34-5.43-8.7-5.06-2.92.2-5.62,2.93-5.83,6.29-.2,3.2-.25,6.44,0,9.63.42,5.38,4.71,8.91,10.61,8.91,22.6.02,45.19,0,67.79.01,1.4,0,2.81.07,4.21.1Z"/>
  <path class="cls-3" d="m327.7,33.51c-.91-2.81-1.83-5.62-2.98-9.17,1.83.66,2.92,1.04,4,1.45,13.45,5.16,27.32,8.45,41.76,7.07,7.43-.71,14.73-2.85,22.06-4.44,12.89-2.78,25.88-4.42,39.1-3.92,13.46.51,26.71,2.53,39.82,5.46,20.53,4.59,40.46,1.68,60.17-4.43,1.04-.32,2.08-.65,3.93-1.23-1.16,3.45-2.12,6.31-3.08,9.17-3.61,5.88-7.21,11.76-10.82,17.64-1.31-.02-2.61-.05-3.92-.05-59.8-.01-119.6-.02-179.41-.04-1.65-2.38-3.3-4.76-4.95-7.14-.55-1.04-1.11-2.08-1.66-3.12-1.34-2.42-2.68-4.84-4.02-7.27Zm198.41,8.98c-.09-.21-.17-.43-.26-.64h-191.33c-.05.41-.11.83-.16,1.24,1.49.25,2.98.71,4.46.72,60.76.04,121.53.03,182.29.03.9,0,1.85.13,2.7-.1.82-.22,1.53-.82,2.29-1.25Z"/>
  <path class="cls-9" d="m636.33,51.56c-8.12.04-16.24.1-24.36.11-26.17.01-52.33,0-78.5,0-1.6,0-3.2-.13-4.8-.19.62-1.45,1.21-2.92,1.87-4.36,2.05-4.48,4.12-8.96,6.18-13.43,18.89-.03,37.79-.54,56.66.04,16.85.52,33.14-1.34,49.23-6.45,10.9-3.46,22.1-5.96,33.17-8.87,1.06-.28,2.16-.39,3.24-.57-.25.31-.44.7-.74.93-11.55,8.8-23.14,17.55-34.66,26.4-2.56,1.96-4.86,4.26-7.28,6.4Z"/>
  <path class="cls-9" d="m331.73,40.78c.55,1.04,1.11,2.08,1.66,3.12-1.69,0-3.38,0-5.72,0,1.45,3.13,2.49,5.36,3.53,7.6-1,.06-2,.17-3,.17-31.37,0-62.73,0-94.1,0-.9,0-1.8-.07-2.7-.11-.69-.8-1.26-1.75-2.08-2.38-8.97-6.88-18-13.69-26.97-20.58-4.59-3.52-9.09-7.17-13.63-10.76,7.09,1.79,14.19,3.52,21.26,5.37,12.12,3.17,24.22,6.44,36.35,9.59,1.82.47,3.74.75,5.62.75,22.17.05,44.34.03,66.51.04,1.4,0,2.81.06,4.21.1.69,1.45,1.42,2.88,2.07,4.34,1.65,3.75,2.96,4.27,6.99,2.76Z"/>
  <path class="cls-4" d="m148.41,137.89c0-7.03,0-14.06,0-21.08,12.05,0,24.1-.02,36.14-.03,0,7.05-.01,14.09-.02,21.14-12.04-.01-24.08-.02-36.12-.03Z"/>
  <path class="cls-4" d="m151.31,156.81c-1-.09-1.99-.19-2.99-.28.03-5.39.07-10.78.1-16.18,12.03-.01,24.07-.02,36.1-.03.02,5.44.04,10.88.06,16.32-11.09.06-22.18.11-33.27.17Z"/>
  <path class="cls-2" d="m188.72,17.83c4.54,3.59,9.04,7.23,13.63,10.76,8.97,6.89,18,13.69,26.97,20.58.82.63,1.39,1.58,2.08,2.38-7.03,0-14.05.06-21.08-.01-1.25-.01-2.49-.52-3.73-.8-7.89-8.77-14.31-18.44-18.12-29.71-.35-1.03-.56-2.11-.84-3.17.37,0,.75,0,1.12,0l-.04-.04Z"/>
  <path class="cls-2" d="m636.33,51.56c2.42-2.14,4.72-4.44,7.28-6.4,11.52-8.85,23.11-17.6,34.66-26.4.31-.23.5-.62.74-.93,0,0-.03.05-.03.05.36,0,.73,0,1.09,0-3.34,12.66-10.45,23.14-18.92,32.85-5.78.29-11.54.62-17.32.85-2.5.1-5,0-7.5,0Z"/>
  <path class="cls-7" d="m719.33,116.8c0,7.04,0,14.07,0,21.11-2.18,0-4.37,0-6.55,0,0-7.03,0-14.07,0-21.1,2.18,0,4.36,0,6.54,0Z"/>
  <path class="cls-7" d="m184.55,116.78c-12.05,0-24.1.02-36.14.03,0-1,0-2.01,0-3.01,12.21-.02,24.42-.04,36.64-.05-.16,1.01-.33,2.03-.49,3.04Z"/>
  <path class="cls-6" d="m719.33,116.8c-2.18,0-4.36,0-6.54,0-10.26,0-20.52-.02-30.78-.03l-.02-2.95c10.27,0,20.55,0,30.82-.01,2.17.19,4.35.38,6.52.58,0,.8,0,1.61,0,2.41Z"/>
  <path class="cls-7" d="m719.41,156.54c-1.6.1-3.19.2-4.79.3-.61-.08-1.22-.16-1.82-.24,0-5.42-.02-10.84-.03-16.26h6.56c.03,5.4.05,10.8.08,16.21Z"/>
  <path class="cls-7" d="m719.33,114.39c-2.17-.19-4.35-.38-6.52-.58.01-6.26.02-12.52.03-18.78,4.87,3.78,6.87,8.82,6.6,14.88-.07,1.49-.08,2.98-.11,4.47Z"/>
  <path class="cls-2" d="m536.71,33.68c-2.06,4.48-4.13,8.95-6.18,13.43-.66,1.44-1.25,2.9-1.87,4.36-2.31.03-4.63.07-6.94.11-.03-.15-.05-.31-.06-.46,3.61-5.88,7.21-11.76,10.82-17.64,1.41.07,2.82.13,4.23.2Z"/>
  <path class="cls-6" d="m719.33,140.32c-2.19,0-4.37,0-6.56,0-10.25,0-20.5,0-30.76,0,0-.8,0-1.61-.01-2.41,10.26,0,20.52,0,30.78,0,2.18,0,4.37,0,6.55,0,0,.8,0,1.61,0,2.41Z"/>
  <path class="cls-7" d="m184.52,140.32c-12.03.01-24.07.02-36.1.04,0-.82,0-1.64,0-2.46,12.04.01,24.08.02,36.12.03,0,.8-.01,1.59-.02,2.39Z"/>
  <path class="cls-2" d="m331.73,40.78c-4.04,1.51-5.34.99-6.99-2.76-.65-1.47-1.38-2.9-2.07-4.34,1.68-.06,3.36-.11,5.03-.17,1.34,2.42,2.68,4.84,4.03,7.27Z"/>
  <path class="cls-9" d="m188.76,17.88c-.37,0-.75,0-1.12,0,.37,0,.75,0,1.12,0Z"/>
  <path class="cls-9" d="m680.07,17.87c-.36,0-.73,0-1.09,0,.36,0,.73,0,1.09,0Z"/>
  <path class="cls-15" d="m646.99,181.35c-20.3,0-40.6,0-60.91-.02-4.14,0-4.15-.01-4.16-4.22,0-6.63,0-13.27-.01-19.9,1-.19,1.99-.38,2.99-.57,18.3.01,36.6.02,54.91.04,1.69.1,3.37.21,5.06.31,1.87.02,3.73.04,5.6.06,2.82.1,5.64.19,8.46.29-.04,4.18-.08,8.35-.12,12.53-6.1.5-10.38,4.66-11.82,11.5Z"/>
  <path class="cls-15" d="m284.03,157.14c0,6.82-.13,13.63.03,20.45.07,2.88-.88,3.81-3.77,3.79-20.45-.09-40.9-.04-61.34-.03-1.02-5.96-4.44-9.76-10.26-11.4,0-4.23-.01-8.45-.02-12.68,1.81-.24,3.62-.49,5.42-.73.61.18,1.23.36,1.84.54h5.31c.64,0,1.28,0,1.93,0,3.97,0,7.93,0,11.9,0,.66,0,1.32,0,1.97,0,3.97,0,7.93,0,11.9,0,.66,0,1.32,0,1.97,0,1.61-.16,3.23-.32,4.84-.48.6.16,1.2.32,1.8.48,1.65-.02,3.3-.04,4.95-.06.93,0,1.86.01,2.78.02,1.45-.14,2.9-.29,4.35-.43.62.16,1.23.32,1.85.48,4.01-.16,8.02-.32,12.02-.48.18.18.37.36.55.53Z"/>
  <path class="cls-15" d="m495.58,181.36c-17.66,0-35.33-.02-52.99-.03-4.18,0-4.19-.01-4.19-4.17,0-6.62,0-13.25,0-19.87,2.19-.07,4.38-.14,6.57-.21,1.63-.15,3.27-.3,4.9-.45,18.32,0,36.64,0,54.96.01.81.22,1.62.44,2.43.66-.04,4.14-.07,8.28-.11,12.43-6.47,1.19-10.55,5.29-11.56,11.63Z"/>
  <path class="cls-15" d="m427.5,157.25c.01,6.83-.08,13.66.08,20.48.06,2.74-.83,3.67-3.62,3.65-17.87-.09-35.75-.03-53.62-.02-.98-5.99-4.45-9.74-10.27-11.37-.03-4.25-.06-8.49-.09-12.74.03-.16.05-.32.05-.48,3.4-.03,6.8-.06,10.2-.1,1.39.11,2.78.21,4.17.32,7.65.03,15.29.07,22.94.1,1.23-.01,2.45-.02,3.68-.03,1.93,0,3.87,0,5.8,0,1.95-.02,3.89-.04,5.84-.06.31,0,.61.01.92.02.42,0,.84,0,1.25.01h1.23c1.6,0,3.2,0,4.79,0,1.02,0,2.03,0,3.05,0,.43,0,.86-.01,1.29-.02l1.32-.02c.32.08.64.17.96.25Z"/>
  <path class="cls-15" d="m344.15,181.36c-15.14-.01-30.28-.09-45.42.03-3.05.02-4.02-.92-3.93-3.96.18-6.71.04-13.43.02-20.15.83-.08,1.67-.16,2.5-.24.93,0,1.85-.01,2.78-.02,1.45.02,2.9.04,4.35.06.64,0,1.28,0,1.92,0,1.03-.03,2.06-.06,3.09-.09,1.58-.1,3.16-.21,4.73-.31,13.87.02,27.73.04,41.6.06-.01,4.32-.02,8.64-.04,12.97-6.69,1.14-10.46,4.92-11.62,11.64Z"/>
  <path class="cls-15" d="m571.09,157.32c0,6.82-.12,13.64.03,20.45.06,2.78-.91,3.63-3.65,3.62-15.24-.09-30.48-.03-45.71-.02-1.01-6.21-4.38-9.93-10.31-11.38-.03-4.24-.06-8.47-.09-12.71,2.04-.04,4.08-.09,6.13-.13,2.79-.01,5.57-.03,8.36-.04.33-.01.67-.02,1-.03,13.41,0,26.82,0,40.22,0,.33.01.66.02.99.03,1.01.07,2.02.15,3.04.22Z"/>
  <path class="cls-15" d="m151.31,156.81c11.09-.06,22.18-.11,33.27-.17,1.71.08,3.41.16,5.12.23,4.94.16,9.88.31,14.83.47l-.2,12.43c-6.92.81-10.33,5.24-11.92,11.55-12.45,0-24.9-.07-37.35.06-2.9.03-3.85-.91-3.78-3.8.16-6.92.04-13.85.03-20.78Z"/>
  <path class="cls-15" d="m712.8,156.6c.61.08,1.22.16,1.82.24,0,7.02-.11,14.05.02,21.07.05,2.64-.9,3.48-3.5,3.46-12.54-.1-25.09-.05-37.63-.05-1.29-5.69-4.47-9.7-10.19-11.46,0-4.19,0-8.39-.01-12.58,2.22-.09,4.44-.18,6.66-.27.35.02.71.04,1.06.05l5.56.05c1.8-.15,3.59-.3,5.39-.45,10.27-.02,20.54-.04,30.82-.06Z"/>
  <path class="cls-9" d="m507.25,157.3c-.81-.22-1.62-.44-2.44-.67-.02-5.44-.03-10.89-.05-16.33,0-.79.01-1.58.02-2.38.01-7.04.02-14.09.03-21.13,0-.99-.01-1.97-.02-2.96,1.04-4.56,1.38-9.44,3.27-13.63,5.93-13.18,16.85-19.42,30.98-20.1,6.38-.31,12.8-.11,19.18.32,2.02.14,3.93,1.79,5.9,2.73,9.76,4.65,16.28,11.97,19.35,22.48.86,2.93,2.53,5.57,1.44,8.77-.01.8-.02,1.59-.04,2.39.01,7.04.02,14.09.03,21.13,0,.79.01,1.58.02,2.38,0,5.44,0,10.89,0,16.33-1,.19-1.99.38-2.99.57-.79-.03-1.58-.06-2.38-.1-.02-.17-.05-.33-.1-.49.02-3.19.03-6.38.05-9.57,0-.72,0-1.44,0-2.16-.18-8.15-.37-16.3-.55-24.45.16-.37.42-.72.46-1.1,2.05-16.69-7.99-30.79-23.87-33.72-5.36-.99-10.99-.94-16.48-.72-21.29.85-32.6,18.33-29.67,37.94l.17,22.19.06.14c-.04.19-.09.38-.13.57.03.41.05.81.08,1.22-.24,3.27-.49,6.54-.73,9.81-.52.18-1.04.37-1.56.55Z"/>
  <path class="cls-1" d="m306.38,157.09c-.64,0-1.28,0-1.92,0,0-3.93,0-7.86,0-11.98-1.79.08-3.12.15-4.8.22v11.33c-.65-.04-1.3-.08-1.95-.12v-11.22h-5.04c-.18,4.03-.36,7.9-.53,11.76-.52,0-1.03,0-1.55-.01,0-3.88,0-7.76,0-11.72h-4.66c0,1.48.06,2.76-.01,4.04-.15,2.56-.38,5.12-.58,7.69-.43.02-.87.04-1.3.07-.18-.18-.37-.36-.55-.53,0-3.77,0-7.54,0-11.24h-5.25v11.39c-.4,0-.81,0-1.21,0v-11.41h-4.97c0,1.47.06,2.76-.01,4.04-.15,2.57-.38,5.14-.58,7.7-.62-.16-1.23-.32-1.85-.48,0-3.74,0-7.48,0-11.24h-4.72v11.18c-.65.04-1.3.08-1.95.12v-11.3h-4.86c0,1.39.05,2.58-.01,3.75-.15,2.66-.35,5.31-.53,7.97-.6-.16-1.2-.32-1.8-.48,0-3.75,0-7.5,0-11.28h-4.84v11.76c-.66,0-1.32,0-1.97,0,0-3.87,0-7.75,0-11.76h-4.72c0,2.85.11,5.53-.05,8.2-.06,1.1-.69,2.17-1.06,3.26-.43-1.13-1.16-2.25-1.24-3.41-.19-2.65-.06-5.33-.06-8.07h-4.77v11.78c-.66,0-1.32,0-1.97,0,0-3.87,0-7.75,0-11.76h-4.72c0,2.85.11,5.53-.05,8.2-.06,1.1-.69,2.17-1.06,3.26-.43-1.13-1.16-2.25-1.24-3.41-.19-2.65-.06-5.33-.06-8.07h-4.77v11.78c-.64,0-1.28,0-1.93,0-.29-3.93-.58-7.85-.86-11.74h-3.9c0,1.37.05,2.56-.01,3.74-.15,2.67-.35,5.33-.53,8-.61-.18-1.23-.36-1.84-.54,0,0,0,.05,0,.05v-11.21h-4.58v11.22c-.69.01-1.39.02-2.08.04v-11.27h-5.26v11.25l-1.88.04v-11.27h-4.96v11.27c-.68-.02-1.36-.03-2.05-.05-.03-2.88-.18-5.77-.07-8.65.09-2.19-.56-3.24-2.87-2.73,0-1.06,0-2.12,0-3.18,1.31.03,2.61.08,3.92.08,36.87,0,73.74,0,110.61.01,1.3,0,2.6.11,3.9.18,0,.89,0,1.78-.01,2.66-1.8-.04-2.59.65-2.48,2.62.18,3.15.08,6.33.1,9.49Z"/>
  <path class="cls-16" d="m663.33,169.87c5.71,1.76,8.9,5.77,10.19,11.46-.14.99-.28,1.98-.41,2.98-1,7.2-6.46,12.06-13.23,11.77-7.32-.31-12.67-5.81-12.85-13.22-.01-.5-.02-1-.04-1.5,1.44-6.83,5.72-11,11.82-11.5-.05,2.28-.1,4.56-.16,6.84-1.01.6-2.18,1.03-3,1.82-2.57,2.46-2.58,6.37-.17,8.87,2.3,2.38,6.56,2.52,9,.29,2.58-2.35,3.13-6.56.58-8.83-3.07-2.74-2.43-5.75-1.73-8.98Z"/>
  <path class="cls-16" d="m192.41,181.33c1.59-6.31,5-10.74,11.92-11.55,0,2.29,0,4.57-.01,6.86-.82.36-1.73.58-2.43,1.1-2.77,2.04-3.36,6.01-1.41,8.84,1.92,2.79,5.96,3.57,8.84,1.71,2.83-1.82,4.21-6.1,1.99-8.35-2.97-3.02-2.83-6.37-2.62-9.97,5.82,1.64,9.24,5.44,10.26,11.4.8,9.95-7.96,15.97-15.58,14.47-5.51-1.09-9.61-5.12-10.44-10.62-.19-1.29-.34-2.58-.51-3.87Z"/>
  <path class="cls-16" d="m511.44,169.98c5.94,1.45,9.3,5.17,10.31,11.38-.29,8.21-3.87,13.18-10.37,14.41-8.28,1.57-15.55-4.26-15.75-12.61-.01-.6-.04-1.2-.06-1.8,1.01-6.35,5.09-10.45,11.56-11.63,0,2.33-.01,4.66-.02,7-.56.21-1.15.36-1.66.65-3.02,1.73-4.12,5.91-2.37,8.88,1.71,2.91,5.97,3.93,8.99,2.16,3.01-1.77,4.37-6.3,1.91-8.83-2.87-2.95-2.69-6.16-2.55-9.61Z"/>
  <path class="cls-16" d="m344.15,181.36c1.16-6.72,4.93-10.5,11.62-11.64,0,2.33-.01,4.65-.02,6.98-4.25,1.52-6.02,5.14-4.36,8.93,1.44,3.28,5.58,4.65,8.95,2.95,3.33-1.68,4.76-6.33,2.08-9.2-2.75-2.95-2.4-6.07-2.33-9.4,5.82,1.63,9.29,5.37,10.27,11.37-.29,8.03-4.02,13.17-10.46,14.42-8.28,1.6-15.39-4.12-15.66-12.61-.02-.6-.05-1.2-.08-1.8Z"/>
  <path class="cls-1" d="m431.78,157.08c-1.11,0-2.22-.01-3.33-.02-.54-.08-1.08-.15-1.62-.23.01-18.98.03-37.95.04-56.93,1.85,1.03,3.71,2.05,5.56,3.08v42.17h11.96c.05.43.1.85.15,1.28-.03.2-.07.4-.1.6h-12.12v9.58c-.18.16-.36.32-.54.48Z"/>
  <path class="cls-13" d="m431.78,157.08c.18-.16.36-.32.54-.48,4.2-.2,8.4-.4,12.6-.6.01.36.02.72.03,1.07-2.19.07-4.38.14-6.57.21-2.2-.07-4.4-.14-6.6-.2Z"/>
  <path class="cls-12" d="m579.43,156.62c.05.16.09.33.1.49-2.82.07-5.63.14-8.45.2-1.01-.07-2.02-.15-3.04-.22,3.79-.16,7.59-.32,11.38-.48Z"/>
  <path class="cls-4" d="m426.83,156.83c.54.08,1.08.15,1.62.23-.32.06-.63.13-.95.19-.32-.08-.64-.17-.95-.25.07-.1.16-.15.28-.16Z"/>
  <path class="cls-7" d="m152.3,63.34h567.47c.08.19.16.37.24.56-4.01,2.55-8.18,4.87-11.99,7.7-4.12,3.06-8.56,3.71-13.55,3.68-24.72-.17-49.45-.01-74.17-.1-38.88-.14-77.76-.38-116.64-.59-36.77-.2-73.54-.41-110.31-.6-39.78-.21-79.57-.39-119.35-.61-33.45-.18-66.91-.44-100.36-.54-4.03-.01-7.68-.44-11.11-2.81-3.32-2.29-6.96-4.14-10.46-6.18.08-.17.15-.33.23-.5Z"/>
  <path class="cls-9" d="m444.95,157.07c-.01-.36-.02-.72-.03-1.07,0-2.61,0-5.22,0-7.84l-.38-1.73c-.05-.43-.1-.85-.15-1.28,0-.17.03-.34.07-.51.15-.23.3-.46.46-.7-.1-7.64-.21-15.28-.31-22.92-.07-4.18.38-8.44-.3-12.52-2.26-13.46-15.28-25.28-29.4-24.33-4.4.3-8.94-.53-13.23.21-4.54.78-9.27,2.12-13.19,4.45-8.68,5.17-12.87,13.47-13.91,23.42.13,2.93.27,5.86.41,8.79-.1,1.4-.2,2.8-.29,4.2-.07,4.68-.21,9.36-.19,14.03,0,1.74.35,3.48.55,5.22.09.13.11.28.06.43-.19.67-.37,1.35-.56,2.02l-.14,10.03c-1.39-.11-2.78-.21-4.17-.32,0-4.51-.06-9.02.02-13.53.04-2.03-.71-2.88-2.8-2.87-16.84.04-33.68.05-50.52,0-2.11,0-2.83.87-2.79,2.89.08,4.51.04,9.02.05,13.53-1.58.1-3.16.21-4.73.31-.23-4.01-.48-8.02-.72-12.02,0-.89,0-1.78.01-2.67.07-5.72.13-11.43.2-17.14.09-.16.08-.32-.03-.47-.03-.84-.07-1.68-.1-2.52,1.6-9.23-.21-17.8-5.86-25.22-6.24-8.19-14.79-11.7-25.15-11.59-19.38.22-38.76.23-58.14-.01-8.58-.11-15.48,2.78-21.44,8.84-7.33,7.45-9.39,16.19-7.26,26.18-.21,7.23-.43,14.45-.64,21.68,0,1.06,0,2.12,0,3.18-.04,3.8-.08,7.6-.12,11.4-.2.04-.37.12-.53.24-1.71-.08-3.41-.16-5.12-.23-.02-5.44-.04-10.88-.06-16.32,0-.8.01-1.59.02-2.39,0-7.05.01-14.09.02-21.14.16-1.01.33-2.03.49-3.04.05-7.27,2.63-13.44,6.91-19.39,7.42-10.3,17.83-13.94,29.63-14.18,18.76-.38,37.53-.27,56.29-.03,10.04.13,19.08,3.51,26.3,10.75,6.27,6.28,9.29,14.1,10.03,22.87,0,1.03,0,2.07.01,3.1-.01,5.92.05,11.85-.07,17.76-.05,2.41.69,3.39,3.25,3.38,16.56-.08,33.12-.08,49.68,0,2.59.01,3.27-1.01,3.22-3.4-.12-5.92-.06-11.84-.06-17.76,0-1.02,0-2.03.01-3.05.48-18.81,15.46-33.7,34.26-33.66,6.87.02,13.9.14,20.58,1.55,12.39,2.62,22.47,14.46,24.21,27.02.23,1.68.4,3.37.6,5.06,0,1.03,0,2.06.01,3.09,0,7,0,14.01,0,21.01,0,.84,0,1.67,0,2.51-.01,5.42-.03,10.83-.04,16.25-1.63.15-3.27.3-4.9.45Z"/>
  <path class="cls-9" d="m681.98,156.66c-1.8.15-3.59.3-5.39.45l-.48-48.2c.03-4.07.79-8.3-.05-12.19-1.66-7.73-9.23-12.3-17.85-11.21-10.25,1.3-16.46,12.33-12.48,22.23-.17.98-.5,1.96-.5,2.93-.01,15.3.01,30.6.03,45.9-.18.09-.32.22-.41.4-1.69-.1-3.37-.21-5.06-.31,0-1.19-.02-2.39.02-3.58.17-4.25.37-8.49.56-12.73,0-.83,0-1.65,0-2.48-.19-4.26-.5-8.51-.53-12.77-.02-2.76.35-5.52.54-8.29-.17-1-.35-2-.52-3.01-.02-5.93-.12-11.86.01-17.78.02-1.1.92-2.22,1.53-3.26.44-.76,1.21-1.33,1.58-2.11,2.19-4.68,6.03-7.39,10.7-9.14,1.69-.63,3.58-1.79,5.14-1.49,6.61,1.3,13.97,1.65,18.1,8.06,2.85,4.42,5.09,9.34,5.06,14.88-.02,3.62,0,7.24-.01,10.85,0,.98.01,1.97.02,2.95,0,7.04,0,14.09,0,21.13,0,.8,0,1.61.01,2.41-.01,5.45-.02,10.89-.03,16.34Z"/>
  <path class="cls-7" d="m370.23,113.78c0,1.02,0,2.03-.01,3.05-18.67,0-37.34.02-56.01.02,0-1.03,0-2.06-.01-3.1,18.68,0,37.35.02,56.03.03Z"/>
  <path class="cls-6" d="m639.88,113.82c.17,1,.35,2,.52,3-18.52,0-37.03-.01-55.55-.02.01-.8.02-1.59.04-2.39,1.37-.2,2.75-.58,4.12-.58,16.96-.04,33.91-.02,50.87-.02Z"/>
  <path class="cls-6" d="m449.89,116.85c0-1.03,0-2.06-.01-3.09,18.3.03,36.61.06,54.91.09,0,.99.01,1.97.02,2.96-18.31.01-36.61.03-54.92.04Z"/>
  <path class="cls-9" d="m521.66,51.11c.02.15.04.31.06.46-2.11.03-4.22.09-6.32.09-57.97,0-115.95.01-173.92,0-1.1,0-2.21-.07-3.31-.11.05-.18.11-.35.17-.53,59.8.01,119.6.02,179.41.04,1.31,0,2.61.03,3.92.05Z"/>
  <path class="cls-2" d="m338.34,51.03c-.06.17-.12.35-.17.53-2.32-.02-4.65-.04-6.97-.07-1.04-2.24-2.08-4.47-3.53-7.6,2.34,0,4.03,0,5.72,0,1.65,2.38,3.3,4.76,4.95,7.14Z"/>
  <path class="cls-6" d="m526.11,42.49c-.76.43-1.47,1.03-2.29,1.25-.85.23-1.79.1-2.7.1-60.76,0-121.53,0-182.29-.03-1.49,0-2.98-.47-4.46-.72.05-.41.11-.83.16-1.24h191.33c.09.21.17.43.26.64Z"/>
  <path class="cls-4" d="m682,137.91c0-7.04,0-14.09,0-21.13,10.26,0,20.52.02,30.78.03,0,7.03,0,14.07,0,21.1-10.26,0-20.52,0-30.78,0Z"/>
  <path class="cls-4" d="m681.98,156.66c.01-5.45.02-10.89.03-16.34,10.25,0,20.5,0,30.76,0,0,5.42.02,10.84.03,16.26-10.27.02-20.54.04-30.82.06Z"/>
  <path class="cls-4" d="m640.38,140.36c-.19,4.24-.39,8.49-.56,12.73-.05,1.19-.02,2.38-.02,3.58-18.3-.01-36.6-.02-54.91-.04,0-5.44,0-10.89,0-16.33,18.49.02,36.99.04,55.48.05Z"/>
  <path class="cls-4" d="m669.98,157.01c-2.22.09-4.44.18-6.66.27-.61,0-1.22,0-1.83,0-.86.01-1.71.02-2.57.03-2.82-.1-5.64-.19-8.46-.29.02-.17,0-.34-.05-.51,0,0,.14-.07.14-.07,0,0,.09.13.09.13.81,0,1.62,0,2.43,0,1.01,0,2.02,0,3.03.01,2.43-.14,1.8-2.02,1.8-3.38.03-18.63.02-37.25.01-55.88,1.82-.14,3.63-.27,5.45-.41-.03,18.07-.05,36.13-.08,54.2q0,5.16,5.23,5.55c.49.04.97.22,1.46.33Z"/>
  <path class="cls-5" d="m658.92,157.33c.86-.01,1.71-.02,2.57-.03,0,6.36.05,12.72-.04,19.08-.01.81-.73,1.6-1.13,2.4-.56-.69-1.11-1.38-1.67-2.07.05-2.28.1-4.56.16-6.84.04-4.18.08-8.35.12-12.53Z"/>
  <path class="cls-2" d="m650.41,156.53c.06.16.08.33.05.5-1.87-.02-3.74-.04-5.6-.06.1-.18.23-.31.41-.4,1.71-.02,3.43-.03,5.14-.05Z"/>
  <path class="cls-17" d="m208.68,169.95c-.21,3.6-.35,6.95,2.62,9.97,2.22,2.26.83,6.53-1.99,8.35-2.88,1.86-6.91,1.08-8.84-1.71-1.95-2.83-1.36-6.8,1.41-8.84.7-.52,1.61-.74,2.43-1.1.52.72,1.03,1.44,1.55,2.16.4-.8,1.14-1.6,1.15-2.42.13-6.2.12-12.4.15-18.59.09-.11.12-.24.07-.37.47-.05.94-.09,1.42-.14,0,4.23.01,8.45.02,12.68Z"/>
  <path class="cls-2" d="m208.65,157.27c-.47.05-.94.09-1.41.14-.18-.08-.36-.15-.55-.2-.72.04-1.45.08-2.17.13-4.94-.16-9.89-.31-14.83-.47.16-.12.33-.2.53-.25,1.02,0,2.03-.01,3.05-.02.68.02,1.36.03,2.05.05,1.65,0,3.31,0,4.96,0,.63-.01,1.25-.02,1.88-.04,1.75,0,3.51.02,5.26.02.69-.01,1.39-.02,2.08-.04,1.53,0,3.05-.01,4.58-.02,0,0,0-.05,0-.05-1.81.24-3.62.49-5.42.73Z"/>
  <path class="cls-2" d="m264.89,156.55c.12.16.25.33.37.49-.93,0-1.86-.01-2.78-.02.13-.15.29-.27.46-.36.65-.04,1.3-.08,1.95-.12Z"/>
  <path class="cls-4" d="m449.85,156.62c.01-5.42.03-10.83.04-16.25,18.29-.02,36.58-.04,54.87-.06.02,5.44.03,10.89.05,16.33-18.32,0-36.64,0-54.96-.01Z"/>
  <path class="cls-1" d="m507.12,176.72c0-2.33.01-4.66.02-7,.04-4.14.07-8.28.11-12.43.52-.18,1.04-.37,1.56-.55.42.18.85.36,1.27.54-.02,6.37,0,12.74-.12,19.1-.01.81-.75,1.61-1.15,2.42-.57-.69-1.13-1.39-1.7-2.08Z"/>
  <path class="cls-4" d="m314.2,156.69c0-4.51.04-9.02-.05-13.53-.04-2.02.68-2.89,2.79-2.89,16.84.05,33.68.04,50.52,0,2.09,0,2.84.84,2.8,2.87-.08,4.51-.02,9.02-.02,13.53-3.4.03-6.8.06-10.2.1-.43-.05-.87-.1-1.3-.15-1.06-1.71-2.05-1.93-2.95.13-13.87-.02-27.73-.04-41.6-.06Z"/>
  <path class="cls-17" d="m360.08,169.99c-.06,3.33-.42,6.45,2.33,9.4,2.69,2.88,1.25,7.53-2.08,9.2-3.37,1.7-7.51.33-8.95-2.95-1.66-3.79.11-7.42,4.36-8.93.55.7,1.1,1.41,1.65,2.11.42-.8,1.18-1.6,1.2-2.41.14-6.38.14-12.77.18-19.15.41,0,.81,0,1.22,0,.03,4.25.06,8.49.09,12.74Z"/>
  <path class="cls-10" d="m400.95,147.17c.03,3.3.06,6.59.09,9.89-1.23.01-2.45.02-3.68.03,0-.13-.01-.27-.03-.4.03-3.17.05-6.35.08-9.52h3.54Z"/>
  <path class="cls-12" d="m397.33,156.7c.02.13.03.27.03.4-7.65-.03-15.29-.07-22.94-.1.05-3.34.09-6.69.14-10.03.19,0,.37.05.53.16-.02,2.3,0,4.61-.08,6.91-.07,1.95.83,2.67,2.71,2.64,4.11-.07,8.21-.04,12.32-.05.73,0,1.46,0,2.2.01,1.7.02,3.39.04,5.09.06Z"/>
  <path class="cls-4" d="m406.84,157.06c.05-.13.14-.23.26-.3,1.79.05,3.58.11,5.38.16,0,0,.21.08.21.08-1.95.02-3.89.04-5.84.06Z"/>
  <path class="cls-4" d="m416.08,157.03c.21-.15.41-.3.62-.45.99,0,1.98,0,2.97,0,.4.15.8.3,1.21.46-1.6,0-3.2,0-4.79,0Z"/>
  <path class="cls-4" d="m414.21,156.52c.21.17.43.34.64.51-.42,0-.84,0-1.25-.01.2-.17.41-.33.61-.5Z"/>
  <path class="cls-4" d="m425.12,156.6c.04.14.08.27.1.41-.43,0-.86.01-1.29.02.4-.14.79-.29,1.19-.43Z"/>
  <path class="cls-11" d="m360,157.25c-.41,0-.81,0-1.22,0-.01-.21-.02-.42-.03-.63.43.05.87.1,1.3.15,0,.16-.02.32-.05.48Z"/>
  <path class="cls-1" d="m358.75,156.63c.01.21.02.42.03.63-.04,6.38-.04,12.77-.18,19.15-.02.81-.78,1.61-1.2,2.41-.55-.7-1.1-1.41-1.65-2.11,0-2.33.01-4.65.02-6.98.01-4.32.02-8.65.04-12.97.89-2.06,1.89-1.84,2.95-.13Z"/>
  <path class="cls-2" d="m299.65,156.67c.17.09.32.21.45.36-.93,0-1.85.01-2.78.02.12-.16.25-.33.37-.49.65.04,1.3.08,1.95.12Z"/>
  <path class="cls-17" d="m510.09,157.29c.42,0,.84-.01,1.26-.02.03,4.24.06,8.47.09,12.71-.14,3.45-.33,6.66,2.55,9.61,2.46,2.52,1.1,7.06-1.91,8.83-3.02,1.77-7.28.75-8.99-2.16-1.75-2.98-.65-7.16,2.37-8.88.51-.29,1.11-.44,1.66-.65.57.7,1.13,1.39,1.7,2.09.4-.8,1.14-1.6,1.15-2.42.12-6.37.09-12.74.12-19.1Z"/>
  <path class="cls-12" d="m566.87,156.86s.18.21.18.21c-13.41,0-26.81,0-40.22,0,0,0,.18-.21.18-.21,1.84-.06,3.67-.12,5.51-.18,2.18-.02,4.36-.04,6.54-.06,1.84,0,3.68,0,5.53,0h4.11c.84,0,1.68,0,2.53,0,3.38.02,6.77.04,10.15.07,1.84.06,3.67.12,5.51.19Z"/>
  <path class="cls-12" d="m517.47,157.14c2.79-.01,5.57-.03,8.36-.04-2.79.01-5.57.03-8.36.04Z"/>
  <path class="cls-5" d="m204.52,157.34c.72-.04,1.45-.08,2.17-.13.16.19.31.38.47.57-.03,6.2-.02,12.4-.15,18.59-.02.81-.75,1.61-1.15,2.42-.52-.72-1.03-1.44-1.55-2.16,0-2.29,0-4.57.01-6.86.07-4.15.13-8.29.2-12.43Z"/>
  <path class="cls-1" d="m671.04,157.07c.01-16.25.03-32.49.05-48.74,0-1.2.06-2.4.09-3.6.39-.43.78-.86,1.16-1.28,1.26,1.82,2.51,3.65,3.77,5.47l.48,48.2c-1.85-.02-3.7-.03-5.56-.05Z"/>
  <path class="cls-17" d="m658.65,176.7c.56.69,1.11,1.38,1.67,2.07.39-.8,1.12-1.59,1.13-2.4.09-6.36.05-12.72.04-19.08.61,0,1.22,0,1.83,0,0,4.19,0,8.39.01,12.58-.7,3.23-1.34,6.24,1.73,8.98,2.55,2.27,1.99,6.48-.58,8.83-2.44,2.23-6.7,2.09-9-.29-2.41-2.5-2.4-6.4.17-8.87.83-.79,1.99-1.23,3-1.82Z"/>
  <path class="cls-4" d="m584.86,116.8c18.52,0,37.03.01,55.55.02-.19,2.76-.57,5.53-.54,8.29.04,4.26.34,8.52.53,12.77-18.5.02-37.01.03-55.51.05-.01-7.04-.02-14.09-.03-21.13Z"/>
  <path class="cls-4" d="m449.89,116.85c18.31-.01,36.61-.03,54.92-.04,0,7.04-.02,14.09-.03,21.13-18.3-.02-36.59-.05-54.89-.07,0-7,0-14.01,0-21.01Z"/>
  <path class="cls-6" d="m509.37,122.83c-2.92-19.61,8.38-37.1,29.67-37.94,5.48-.22,11.12-.27,16.48.72,15.87,2.93,25.92,17.03,23.87,33.72-.05.38-.3.73-.46,1.1-2.59-5.99-5.52-11.74-10.95-15.74-.34-.16-.69-.33-1.03-.49-1.83-1.02-3.67-2.04-5.5-3.06-3.4-.95-6.8-1.9-10.2-2.84-.84-.03-1.68-.06-2.52-.09-1.38,0-2.76,0-4.15-.01-1.83,0-3.66,0-5.5,0-2.2.38-4.41.75-6.61,1.13-1.83.62-3.66,1.24-5.49,1.87-.18,0-.36.04-.52.11-2.38,1.57-4.94,2.94-7.11,4.76-5.24,4.41-7.93,10.42-9.97,16.78Z"/>
  <path class="cls-1" d="m509.54,145.02c1.22-.12,2.44-.23,3.65-.35,1.8,0,3.59,0,5.39,0h8.29v-42.97c.11-.16.14-.33.09-.52,1.83-.62,3.66-1.24,5.49-1.87.02,19.12.04,38.23.06,57.35-1.84.06-3.67.12-5.51.18,0-3.09,0-6.19,0-9.91-5.97,0-11.72,0-17.47,0-.03-.41-.05-.81-.08-1.22.06-.18.11-.37.13-.57l-.06-.14Z"/>
  <path class="cls-1" d="m567.01,104.74v40.14c4.19,0,8.32,0,12.46,0,0,.72,0,1.44,0,2.16h-12.6c0,3.49,0,6.65,0,9.81-1.84-.06-3.67-.12-5.51-.19.02-18.51.05-37.02.07-55.54,1.83,1.02,3.67,2.04,5.5,3.06-.06.2-.04.38.08.55Z"/>
  <path class="cls-6" d="m584.89,137.93c18.5-.02,37.01-.03,55.51-.05,0,.83,0,1.65,0,2.48-18.49-.02-36.99-.03-55.48-.05,0-.79-.01-1.58-.02-2.38Z"/>
  <path class="cls-6" d="m449.89,137.86c18.29.02,36.59.05,54.89.07,0,.79-.01,1.59-.02,2.38-18.29.02-36.58.04-54.87.06,0-.84,0-1.67,0-2.51Z"/>
  <path class="cls-6" d="m509.6,145.16c-.02.19-.06.38-.13.57.04-.19.09-.38.13-.57Z"/>
  <path class="cls-6" d="m426.87,99.9c-.35-.22-.71-.44-1.06-.66-2.02-.41-4.04-.82-6.06-1.23-3.03-.34-6.06-.68-9.08-1.02-1.7-.03-3.4-.14-5.09-.07-4.58.2-9.17.43-13.2,3.06-.56.39-1.11.77-1.67,1.16-.41.04-.82.09-1.23.13-7.06,4.08-11.4,10.27-13.83,17.93-.36-2.31-.71-4.62-1.07-6.92,1.04-9.95,5.23-18.25,13.91-23.42,3.91-2.33,8.65-3.67,13.19-4.45,4.29-.74,8.83.09,13.23-.21,14.11-.96,27.13,10.87,29.4,24.33.68,4.07.23,8.34.3,12.52-.43-.99-.93-1.95-1.28-2.97-2.14-6.11-5.83-11.09-10.9-15.08-1.85-1.03-3.71-2.05-5.56-3.08Z"/>
  <path class="cls-13" d="m444.92,148.16c-.16-.38-.32-.76-.48-1.13.03-.2.07-.4.1-.6.13.58.25,1.16.38,1.73Z"/>
  <path class="cls-6" d="m308.84,122.19c-1.44-3.94-2.75-7.91-6.17-10.77-4.49-3.76-9.77-5.48-15.44-6.04-4.18-.42-8.4-.59-12.6-.6-18.15-.06-36.31-.19-54.46.08-5.24.08-10.59.95-15.68,2.27-6.82,1.77-11.56,6.23-13.5,13.26-2.13-9.99-.07-18.72,7.26-26.18,5.96-6.06,12.86-8.95,21.44-8.84,19.38.24,38.76.23,58.14.01,10.36-.12,18.91,3.39,25.15,11.59,5.65,7.42,7.46,15.99,5.86,25.22Z"/>
  <path class="cls-4" d="m314.21,116.85c18.67,0,37.34-.02,56.01-.02,0,5.92-.06,11.85.06,17.76.05,2.39-.63,3.41-3.22,3.4-16.56-.09-33.12-.08-49.68,0-2.56.01-3.3-.96-3.25-3.38.13-5.92.06-11.84.07-17.76Z"/>
  <path class="cls-1" d="m375.11,144.94h15.02c0-14.49,0-28.55,0-42.62.23-.03.45-.06.68-.09.45.2.89.41,1.34.61v42.21h5.27c1.17,0,2.33,0,3.5,0,.5.03,1,.09,1.49.09q4.61.06,4.61-4.46c0-13.11,0-26.22,0-39.33v-3.2c1.45-.1,2.55-.18,3.64-.26,2.19-.07,1.88,1.48,1.88,2.86,0,16.42,0,32.84,0,49.25,0,2.3-.05,4.6-.07,6.9-1.79-.05-3.58-.11-5.38-.16,0-3.1,0-6.2,0-9.58h-14.86v9.46c-.73,0-1.46,0-2.2-.01v-9.5h-14.96c-.16-.11-.34-.16-.53-.16.19-.67.37-1.35.56-2.02Z"/>
  <path class="cls-13" d="m374.69,125.25c.12,6.42.24,12.84.36,19.26-.19-1.74-.54-3.48-.55-5.22-.01-4.68.12-9.36.19-14.03Z"/>
  <path class="cls-13" d="m375.65,119.19c-.22.62-.44,1.24-.66,1.87-.14-2.93-.27-5.86-.41-8.79.36,2.31.71,4.62,1.07,6.93Z"/>
  <path class="cls-6" d="m308.97,125.17c-.06-.15-.07-.31-.03-.47.11.15.12.31.03.47Z"/>
  <path class="cls-13" d="m444.46,144.64c.15-.23.3-.46.46-.7-.15.23-.3.46-.46.7Z"/>
  <path class="cls-6" d="m676.12,108.91c-1.26-1.82-2.51-3.65-3.77-5.47-.61-.96-1.22-1.93-1.82-2.89-2.39-1.21-4.77-2.41-7.16-3.62-1.82.14-3.63.27-5.45.41-.6.08-1.2.15-1.79.22-1.23.57-2.45,1.14-3.68,1.71-.59.61-1.19,1.23-1.78,1.84-.41.17-.82.35-1.23.52-1.23,2.04-2.46,4.07-3.69,6.11-3.99-9.9,2.22-20.92,12.48-22.23,8.62-1.1,16.19,3.48,17.85,11.21.83,3.89.08,8.11.05,12.19Z"/>
  <path class="cls-1" d="m645.74,107.74c1.23-2.04,2.46-4.07,3.69-6.11.37.04.74.08,1.11.12.03,18.28.06,36.56.1,54.84l-.09-.13s-.14.07-.14.07c-1.71.02-3.43.03-5.14.05-.02-15.3-.05-30.6-.03-45.9,0-.98.33-1.96.5-2.93Z"/>
  <path class="cls-8" d="m652.44,99.27c1.23-.57,2.45-1.14,3.68-1.71,0,19.68-.02,39.36-.02,59.04-1.01,0-2.02,0-3.03-.01,0-17.95.02-35.89,0-53.84,0-1.16-.4-2.32-.61-3.48Z"/>
  <path class="cls-11" d="m207.16,157.79c-.16-.19-.31-.38-.47-.57.19.05.37.11.55.2.04.14.02.27-.08.38Z"/>
  <path class="cls-8" d="m539.05,156.61c0-19.47,0-38.95.01-58.42,1.83,0,3.66,0,5.5,0,0,19.47.01,38.95.02,58.42-1.84,0-3.68,0-5.53,0Z"/>
  <path class="cls-8" d="m548.69,156.6c0-19.47.01-38.93.02-58.4.84.03,1.68.06,2.52.09,0,19.44-.01,38.88-.02,58.32-.84,0-1.68,0-2.53,0Z"/>
  <path class="cls-4" d="m670.52,100.55c.61.96,1.22,1.93,1.82,2.89-.39.43-.78.86-1.16,1.28-.22-1.39-.44-2.78-.66-4.17Z"/>
  <path class="cls-12" d="m567.01,104.74c-.11-.17-.14-.36-.08-.55.34.16.69.33,1.03.49-.32.02-.64.04-.95.06Z"/>
  <path class="cls-12" d="m526.97,101.18c.05.19.02.36-.09.52-.14-.14-.29-.27-.43-.41.17-.07.34-.1.52-.11Z"/>
  <path class="cls-9" d="m392.38,99.98c-.08.95-.15,1.91-.23,2.86-.45-.2-.89-.41-1.34-.61-.03-.36-.06-.73-.09-1.09.56-.39,1.11-.77,1.67-1.16Z"/>
  <path class="cls-12" d="m390.72,101.14c.03.36.06.73.09,1.09-.22.03-.45.06-.67.09-.22-.35-.43-.7-.65-1.05.41-.04.82-.09,1.23-.13Z"/>
  <path class="cls-10" d="m397.42,145.05c0-7.3.03-14.61-.03-21.91-.02-2.24.82-3.78,3.53-4.95,0,9.19,0,18.03,0,26.86-1.17,0-2.34,0-3.5,0Z"/>
  <path class="cls-2" d="m650.66,101.11c-.04.21-.08.43-.12.64-.37-.04-.74-.08-1.11-.12.41-.17.82-.35,1.23-.52Z"/>
</svg>