<svg version="1.2" xmlns="http://www.w3.org/2000/svg" viewBox="0 0 577 735" width="577" height="735">
	<title>sagmayam-ai</title>
	<style>
		.s0 { fill: #4d2f42 } 
		.s1 { fill: #f5931f } 
		.s2 { fill: #ca1c25 } 
		.s3 { fill: #ffffff } 
		.s4 { fill: #6f9e27 } 
		.s5 { fill: #502d42 } 
		.s6 { fill: #f18e1e } 
		.s7 { fill: #f3901e } 
		.s8 { fill: #512d42 } 
		.s9 { fill: #4d2e42 } 
		.s10 { fill: #f18e1d } 
		.s11 { fill: #f08e1d } 
		.s12 { fill: #f18f1e } 
		.s13 { fill: #f08d1d } 
		.s14 { fill: #ef8d1d } 
		.s15 { fill: #f2901e } 
		.s16 { fill: #f08e1e } 
		.s17 { fill: #bd1013 } 
		.s18 { fill: #ea4139 } 
		.s19 { fill: #4f2e42 } 
		.s20 { fill: #f5921f } 
		.s21 { fill: #f6931e } 
		.s22 { fill: #502e41 } 
		.s23 { fill: #8b0f16 } 
		.s24 { fill: #4e3043 } 
		.s25 { fill: #ededed } 
		.s26 { fill: #dd7917 } 
	</style>
	<g id="&lt;Group&gt;">
		<g id="&lt;Group&gt;">
			<path id="&lt;Path&gt;" class="s0" d="m377.5 523.1c-5.3 45.3-42.1 81.9-89.3 85.4-52 3.9-97.5-33.9-103.7-85.1 35.5 14.1 74.7 20.6 115.4 17.6 27.3-2 53.4-8.2 77.6-17.9z"/>
			<path id="&lt;Path&gt;" class="s0" d="m547.9 261.9v0.6c5.4 74.5-20.3 144.2-66 196.2-44.7 50.9-108.6 84.9-181.4 90.3-43.8 3.3-85.9-4.2-123.7-20.1q-4.4-1.8-8.6-3.8c-17.5-8.1-34-18-49.3-29.6q-1.6-1.2-3.3-2.5c-31.9-25-58.2-57.1-76.1-94.2q-0.2-0.3-0.3-0.6c-14.2-29.5-23.3-62-25.8-96.5q-1.2-15.8-0.5-31.3c1.4-33.9 9.1-66.4 22.2-96.1 21.1-48.1 55.9-89 99.9-117.5q2.1-1.4 4.2-2.7 1.7-1.1 3.5-2.1 0.9-0.6 1.8-1.1 1.5-0.9 3.2-1.8 4.5-2.6 9.1-5 0 0 0.1-0.1c31.3-16.3 66.4-26.7 103.9-29.5 130.6-9.7 246.2 75.9 278.7 198 0.3 1.1 0.6 2.2 0.9 3.3q3.2 12.6 5.2 25.6 0.3 2.2 0.6 4.5 0.4 2.7 0.6 5.5 0.3 2.2 0.5 4.4 0.2 1.3 0.3 2.6c0.1 1.2 0.2 2.4 0.3 3.5z"/>
			<path id="&lt;Path&gt;" class="s1" d="m539.8 262.5c8.6 115.8-60 219.5-162.3 260.6 0.7-6.1 0.8-12.3 0.3-18.6q-0.3-3.9-0.8-7.7c-24.3 10.8-50.8 17.8-78.9 19.9-40.2 3-78.8-4.3-113.1-19.7-1.1 7.1-1.4 14.4-0.9 21.9q0.2 2.2 0.4 4.5c-89.4-35.7-155.5-119.9-163.1-222.4-10.6-143.1 96.8-267.8 240-278.4 143.1-10.7 267.8 96.8 278.4 239.9z"/>
			<path id="&lt;Path&gt;" class="s0" d="m522.7 264.4c9.9 133.7-90.4 250.1-224 260.1-133.7 9.9-250.1-90.4-260.1-224.1-9.9-133.6 90.4-250.1 224.1-260 133.6-9.9 250.1 90.4 260 224z"/>
			<path id="&lt;Path&gt;" class="s2" d="m515 265.6q0.1 1.7 0.2 3.4c0.9 16.8 0.1 33.4-2.4 49.4q0 0.4-0.1 0.8-0.4 2.4-0.8 4.8-0.2 1.3-0.5 2.5-0.6 3.1-1.3 6.3 0 0.2-0.1 0.5c-4.2 19.2-10.8 37.6-19.5 54.8q-2.6 5.2-5.6 10.4-1.4 2.5-2.9 5-2.3 3.8-4.8 7.5c-24.3 37.2-59 67.2-100.2 85.8-2.2-13.9-7.2-26.7-14.5-37.9q0 0 0-0.1-1.2-1.7-2.4-3.4-0.6-0.9-1.2-1.7-0.6-0.8-1.3-1.7-0.9-1.2-1.9-2.3-0.9-1.1-1.8-2.2-1-1-1.9-2-1-1.1-2-2-0.8-0.9-1.7-1.7-1.2-1.1-2.4-2.1-0.9-0.8-1.8-1.6-0.2-0.2-0.5-0.4-0.7-0.6-1.5-1.3-2.6-2-5.2-3.8-1-0.7-2-1.4-1.2-0.8-2.3-1.5c-4-2.5-8.1-4.8-12.3-6.9-2.6-1.3-5.3-2.4-8-3.6-0.2-0.1-0.2-0.5-0.6-1.4 39.3-10.4 70.2-32.3 90.4-68 16.4-29.2 21.5-60.8 15.1-93.4-12.8-65.3-66.7-111-131.7-112.8-70.8-2.1-126.3 45.9-140.7 111.1-12.2 55.4 15.8 140 106.3 164-4 1.6-7.8 3.2-11.5 5.1-5.6 2.8-10.8 5.9-15.9 9.4-3.6 2.5-7.1 5.2-10.7 8.1 1.7-5 2.9-8 3.8-11.2 2-6.5 0.6-12.2-4.4-16.9-4.2-3.8-8.9-6.8-14.2-8.7-5.4-2-10.9-1.9-15.6 2.5-12.6 11.9-23.5 25.5-34.5 38.8-5.6 7-3.8 17.3 3.5 22.3 9.1 6.3 18.7 12.2 28.8 16.8 6 2.8 6.1 2.5 3.9 9.8-3.6 0.6-6.5-1.6-9.4-3.1-42.2-21.4-75.2-52.9-98.6-94.1-13.9-24.6-22.7-51.1-27.2-79.3-5.1-31.4-3.5-62.2 4-92.7q6.7-27.1 19-51.1 1.8-3.4 3.6-6.7 2.8-5.1 5.9-10 1.2-1.8 2.3-3.6c0.8-1.1 1.6-2.3 2.4-3.5q2.3-3.4 4.8-6.8 1.8-2.4 3.7-4.8 1-1.4 2.1-2.7c8.1-10.3 17.1-19.9 26.9-28.6q1.8-1.7 3.7-3.3 4.8-4.2 9.8-8 1.2-1 2.5-1.9 2.9-2.3 5.9-4.3c13.9-9.8 28.9-18.2 44.9-24.8q1.8-0.8 3.7-1.5c1.3-0.5 2.7-1 4.1-1.5q1.8-0.7 3.6-1.3 2.2-0.8 4.4-1.5 0.9-0.3 1.7-0.6 0.5-0.1 0.9-0.2c10.5-3.4 21.3-6.1 32.5-8q10.7-1.8 21.8-2.6c48.9-3.7 95.5 8 135 30.9q1.9 1.1 3.8 2.2 1.9 1.1 3.7 2.3 1.2 0.8 2.4 1.6c0.5 0.3 1 0.6 1.5 0.9 1 0.7 2 1.4 3 2.1q0.1 0 0.2 0.1 2 1.4 4.1 2.9 1.4 0.9 2.8 1.9 1.3 1 2.5 2 1.2 0.9 2.4 1.8 0.8 0.6 1.7 1.4 1.6 1.2 3.3 2.6 1.6 1.3 3.2 2.7c1.1 0.9 2.1 1.8 3.2 2.7 14.8 13.1 28 28 39.1 44.4q1.6 2.4 3.1 4.8 1.6 2.3 3.1 4.8 1.4 2.4 2.9 4.8v0.1q1.4 2.4 2.7 4.9 1.2 2.1 2.2 4.1 2.4 4.6 4.6 9.3 1.8 3.9 3.4 7.9c8.3 19.6 13.9 40.6 16.6 62.6q0.2 2.1 0.4 4.2 0.3 2.4 0.5 4.8c0.1 0.9 0.2 1.8 0.3 2.6z"/>
			<path id="&lt;Path&gt;" class="s2" d="m515 265.6q0.1 1.7 0.2 3.4c1 16.7 0.2 33.1-2.4 49.4q0 0.4-0.1 0.8-0.4 2.4-0.8 4.8-0.2 1.3-0.5 2.5-0.6 3.1-1.3 6.3 0 0.2-0.1 0.5c-3.4 14.8-8.2 29.6-14.6 44.1q-2.3 5.4-4.9 10.7-2.7 5.3-5.6 10.4-1.4 2.5-2.9 5-2.3 3.8-4.8 7.5c-10.1 15.4-22.1 29.4-35.7 42.3-3.9 3.7-8.3 3.2-13 3.3-1-3.3 1.8-4.4 3.3-6 3-3.1 6.5-5.8 9.4-9 7-7.7 6.6-17.7-1.4-24.5-8.3-6.9-17-13.4-25.5-20-3.7-2.9-7.4-5.7-11.1-8.4-6.7-5-12.8-5.2-19.8-0.8-4.9 3-8.8 7-11.9 11.6-4.5 6.5-2.8 13 0.9 19.2 6.7 11.1 13.7 22.1 20.4 33.2 1.2 2 3.2 3.9 2.6 7.5-9 0.6-18.2 1.3-27.4 2-2.3 0.2-4.2-0.5-5.5-2.5q0 0 0-0.1-1.2-1.7-2.4-3.4-0.6-0.9-1.2-1.7-0.6-0.8-1.3-1.7-0.9-1.2-1.9-2.3-0.9-1.1-1.8-2.2-1-1-1.9-2-1-1.1-2-2-0.8-0.9-1.7-1.7-1.2-1.1-2.4-2.1-0.9-0.8-1.8-1.6-0.2-0.2-0.5-0.4-0.7-0.6-1.5-1.3-2.6-2-5.2-3.8-1-0.7-2-1.4-1.2-0.8-2.3-1.5c-4-2.5-8.1-4.8-12.3-6.9-2.6-1.3-5.3-2.4-8-3.6-0.2-0.1-0.2-0.5-0.6-1.4 39.3-10.4 70.2-32.3 90.4-68 16.4-29.2 21.5-60.8 15.1-93.4-12.8-65.3-66.7-111-131.7-112.8-70.8-2.1-126.3 45.9-140.7 111.1-12.2 55.4 15.8 140 106.3 164-4 1.6-7.8 3.2-11.5 5.1-5.6 2.8-10.8 5.9-15.9 9.4-3.6 2.5-7.1 5.2-10.7 8.1 1.7-5 2.9-8 3.8-11.2 2-6.5 0.6-12.2-4.4-16.9-4.2-3.8-8.9-6.8-14.2-8.7-5.4-2-10.9-1.9-15.6 2.5-12.6 11.9-23.5 25.5-34.5 38.8-5.6 7-3.8 17.3 3.5 22.3 9.1 6.3 18.7 12.2 28.8 16.8 6 2.8 6.1 2.5 3.9 9.8-3.6 0.6-6.5-1.6-9.4-3.1-42.2-21.4-75.2-52.9-98.6-94.1-13.9-24.6-22.7-51.1-27.2-79.3-5.1-31.4-3.5-62.2 4-92.7q6.7-27.1 19-51.1 1.8-3.4 3.6-6.7 2.8-5.1 5.9-10 1.2-1.8 2.3-3.6c0.8-1.1 1.6-2.3 2.4-3.5q2.3-3.4 4.8-6.8 1.8-2.4 3.7-4.8 1-1.4 2.1-2.7 7.5-9.4 16.1-18.2 5.3-5.4 10.8-10.4 1.8-1.7 3.7-3.3 4.8-4.2 9.8-8 1.2-1 2.5-1.9 2.9-2.3 5.9-4.3c14-10 29-18.3 44.9-24.8q1.8-0.8 3.7-1.5c1.3-0.5 2.7-1 4.1-1.5q1.8-0.7 3.6-1.3 2.2-0.8 4.4-1.5 0.9-0.3 1.7-0.6 0.5-0.1 0.9-0.2 8.4-2.7 17.1-4.7 7.6-1.8 15.4-3.3c10.6-2 21.4-3.3 32.2-3.5 44.8-0.7 86.5 9.5 124.6 31.8q1.9 1.1 3.8 2.2 1.9 1.1 3.7 2.3 1.2 0.8 2.4 1.6c0.5 0.3 1 0.6 1.5 0.9 1 0.7 2 1.4 3 2.1q0.1 0 0.2 0.1 2 1.4 4.1 2.9 1.4 0.9 2.8 1.9 1.3 1 2.5 2 1.2 0.9 2.4 1.8 0.8 0.6 1.7 1.4 1.6 1.2 3.3 2.6 1.6 1.3 3.2 2.7c1.1 0.9 2.1 1.8 3.2 2.7 14.9 13.1 28 27.8 39.1 44.4q1.6 2.4 3.1 4.8 1.6 2.3 3.1 4.8 1.4 2.4 2.9 4.8v0.1q1.4 2.4 2.7 4.9 1.2 2.1 2.2 4.1 2.4 4.6 4.6 9.3 1.8 3.9 3.4 7.9c6.8 16.3 11.7 33.3 14.8 50.9q1 5.9 1.8 11.7 0.2 2.1 0.4 4.2 0.3 2.4 0.5 4.8c0.1 0.9 0.2 1.8 0.3 2.6z"/>
			<path id="&lt;Path&gt;" class="s1" d="m539.9 263c5.2 72.4-19.7 139.9-64.1 190.4-7.1 0.4-14.5 1.1-23.2 1.8 3.6-4.3 5.8-7 8.2-9.7 36.5-40 57.8-87.2 62.2-141 5.7-69.5-13.9-131.7-60.7-184.2-42.5-47.6-96-75.2-159.4-80.3-76.8-6.2-143.4 18-197.4 73.8-36.5 37.6-58.7 82.7-65.4 134.6-9.7 75.1 10.6 141.5 61.5 198 19.6 21.9 42.6 39.8 69.2 52.4 10.2 4.8 15.3 10.6 12 22.4-1.1 0.4-2 0.4-2.9 0.2-1.6-0.2-3-1.1-4.3-1.7-1.4-0.7-2.7-1.3-4-1.9-17.3-8.4-33.3-18-47.8-28.7q-1.6-1.2-3.2-2.5c-31.9-24.4-56.8-54.7-73.9-91.3q-0.1-0.3-0.3-0.6c-7.2-15.7-13-32.4-17.3-50.3q-9.2-38.1-8.2-73.7c0.9-32.7 8.2-63.8 21.6-93.2 12.3-27 29.8-52.5 52.4-76.5q20.5-21.7 44.5-37.5 2-1.3 4.1-2.5 1.6-1.1 3.3-2.1 0.9-0.6 1.8-1 1.5-1 3.1-1.8c23.5-13.5 49.3-22.9 77-28.3 74.7-14.6 143.4 0.2 205.2 44.6 30.3 21.7 54.4 49.1 72.7 82 10.7 19.3 19.4 39.3 25.1 60.2 0.3 1.1 0.6 2.1 0.9 3.2q0.8 3.1 1.5 6.3c0.9 4.1 1.8 8.4 2.6 12.6q0.5 3 0.9 5.9 0.3 2.2 0.6 4.3 0.4 2.7 0.6 5.4 0.3 2.1 0.5 4.3 0.1 1.3 0.2 2.5 0.2 2 0.4 3.9z"/>
			<path id="&lt;Path&gt;" class="s3" d="m289.8 411.4c-66.3 6.1-133.8-43.9-138.8-120.1-5-76.6 51.2-134.5 120.8-139.2 72.3-5 133.4 47.1 138.8 120.3 5.8 78-55 135.9-120.8 139z"/>
			<path id="&lt;Path&gt;" class="s4" d="m287.6 600c-49.4 5.2-91.1-35.7-95.1-79.2-4.5-48.5 31.7-92.5 79.2-97.3 51.3-5.2 94.5 34.8 97.7 81.7 3.5 49.7-34.8 92.4-81.8 94.8z"/>
			<path id="&lt;Path&gt;" class="s5" d="m370.5 401.6c4-7.1 9.5-12.9 17.2-15.9 5-1.8 10.2-1.4 14.8 2.4 12.4 10.2 25.1 20 37.4 30.2 8.1 6.8 8.6 17 1 24.3-6.9 6.6-14.1 12.9-21.6 18.8-8.3 6.6-18.7 5-24.1-3.9-8.4-13.7-16-27.7-24-41.7-2.6-4.5-3.4-9.2-0.7-14.2z"/>
			<path id="&lt;Path&gt;" class="s6" d="m394 393.5c1.1-0.1 3.5 1.2 5.7 3 11.2 8.9 22.4 17.5 33.5 26.5 6.4 5.3 6.4 8.9 0.3 14.5-5.4 5-11 10-16.7 14.7-6.8 5.7-10.4 5.4-14.9-1.9-7.7-12.4-15-25-22.6-37.4-2.7-4.4-2.1-8.3 1.5-11.6 3.4-3 6.2-7.1 13.2-7.8z"/>
			<path id="&lt;Path&gt;" class="s7" d="m208.5 426.4c-0.1 0.5-0.4 2.3-1 4-4.9 13.1-9.6 26.2-14.8 39.1-3.2 8.2-6.8 9.2-14.3 4.9-6.4-3.7-12.8-7.5-19.1-11.5-7.1-4.6-7.7-7.8-2.3-14.1 9.2-10.9 18.6-21.6 28.1-32.2 5.4-6 7.4-6.3 14.3-1.9 4 2.5 9.7 3.8 9.1 11.7z"/>
			<path id="&lt;Path&gt;" class="s5" d="m396.2 179.9c-11.8 1.2-17.7-6.2-23.5-13.5-5.2-6.6-3-13.3 1-19.8 7.6-12.3 14.9-24.8 22.7-37.1 6.7-10.7 16.8-12.1 26.5-3.7 6.8 5.9 13.4 12 19.7 18.3 7.6 7.6 7.2 17.3-1.3 24.1-12.3 9.8-25 19.1-37.4 28.8-2.6 2-5.4 2.8-7.7 2.9z"/>
			<path id="&lt;Path&gt;" class="s5" d="m374.7 85.4c-0.4 3.8-1.2 7.7-3.2 11.3-6.8 12.5-13.5 25-20.5 37.4-5.8 10.4-11.8 12.6-23 9.1-2.4-0.8-4.8-1.3-7.1-2.2-8.1-3.2-12.1-9.6-11-18.2 1.8-14.6 3.6-29.3 5.6-44 0.9-5.9 2.4-11.4 8.4-14.6 3.8-1.9 7.3-3.2 11.5-1.8 9.4 3.1 18.9 5.9 28.2 9.1 6.4 2.2 9.8 7.2 11.1 13.9z"/>
			<path id="&lt;Path&gt;" class="s5" d="m411.6 354.6c0.6-8.1 3.2-15.7 9-21.6 3.7-3.8 8.6-5.6 14.4-4.1 15.5 4.1 31.1 7.7 46.6 11.8 10.2 2.8 14.9 11.9 11.1 21.6-3.5 8.9-7.4 17.7-11.8 26.2-4.8 9.4-14.9 12.3-23.5 6.5-13.3-8.9-26.2-18.5-39.2-27.8-4.3-3.1-7-7-6.6-12.6z"/>
			<path id="&lt;Path&gt;" class="s5" d="m166 379.2c0.6 4.7-1.2 8.8-4.6 12.3-11 11.3-21.8 22.8-33.1 33.8-7.2 7.1-18.2 6.2-24.6-1.9-6.1-7.8-11.7-16-16.9-24.4-4.6-7.5-1.9-16.6 6.2-21.6 4.4-2.8 9.4-4.7 14.2-6.9 8.9-4.2 17.9-8.4 26.9-12.5 11.5-5.3 17.9-3.5 25.2 6.9 6.3 8.9 6.4 9.2 6.7 14.3z"/>
			<path id="&lt;Path&gt;" class="s8" d="m90.3 166.7c-0.8-4.9 0.6-8.8 3.4-12.4 4.9-6.3 9.7-12.8 14.7-19 8.4-10.5 18.1-11 27.5-1.1 10.2 10.7 20.1 21.7 29.8 32.8 7.3 8.4 7.2 15.3 0.2 24-11.6 14.6-15.6 15.5-32 7-11.3-5.8-22.6-11.4-33.8-17.3-5.6-3-10.4-6.9-9.8-14z"/>
			<path id="&lt;Path&gt;" class="s5" d="m437.8 236.3c-11.9 1-16.7-1.6-20.6-9.1-1.1-2.2-2.3-4.4-3.2-6.7-4.3-10.2-2.1-17.9 7-24.2q16.8-11.6 33.7-23c3.1-2 6.1-4.1 10.1-4.5 7.6-0.9 13.6 1.7 16.9 8.6 4 8.3 7.9 16.7 11.3 25.4 4.4 11.4-0.5 19.9-12.6 22.9-15.2 3.9-30.5 7.6-42.6 10.6z"/>
			<path id="&lt;Path&gt;" class="s5" d="m506.9 276.5c1 7.1-0.1 14.2-0.4 21.3-0.3 8.3-5.6 13.7-13.9 14.6-2.4 0.2-5 0.4-7.4 0-14.2-2.6-28.5-5.2-42.7-8.2-10.6-2.3-14.2-7.1-15-18.1-0.4-4.4 0-8.6 1.2-12.8 1.6-5.8 5.3-9.9 11.3-11.1 10.9-2.2 21.8-4.1 32.7-6.1 3.6-0.7 7.3-1.1 10.9-2.1 14-3.6 21.9 2.3 22.9 16.9q0.2 2.8 0.4 5.6z"/>
			<path id="&lt;Path&gt;" class="s5" d="m191.7 75.4c8.3-0.7 14.1 2.7 17 11.1 5.2 14.9 10 29.9 14.7 44.9 0.7 2.3 0.9 5 0.4 7.3-2.2 10.7-11.2 14.3-19.8 17.6-7.3 2.9-14-0.1-18.9-6.2-5.9-7.2-11.6-14.4-17.5-21.6q-4.9-6.2-9.9-12.2c-8-9.7-6.5-20.4 4.1-26.7 7.4-4.4 15.2-8.3 22.7-12.5 2.3-1.3 4.7-1.6 7.2-1.7z"/>
			<path id="&lt;Path&gt;" class="s5" d="m136.8 312.4c1.3 13.7-0.6 16.9-12.9 21.8-12.3 5-24.6 10-37.1 14.6-7.4 2.8-14.9 4-21.4-2.8-2.5-2.6-3.9-5.7-4.5-9-1.8-8.4-3.5-16.9-4.5-25.5-1.4-12.3 6-20.5 18.4-20 14.5 0.5 29-0.2 43.5 0.1 9.9 0.1 16.3 5.4 17.8 15.2 0.4 2.1 0.6 4.3 0.7 5.6z"/>
			<path id="&lt;Path&gt;" class="s5" d="m119.1 265.8c-16-0.8-32-1.4-47.9-2.6-8.6-0.6-15.4-9.8-13.7-18.7 1.8-9.7 4.2-19.3 7-28.8 2.7-9.2 12.1-13.7 21.6-10 14.6 5.8 29 12.3 43.3 18.8 6.7 3.1 10.1 8.6 9.7 16.3-0.3 5.1-1.1 9.9-3.1 14.4-3.2 7.1-8.6 11.2-16.9 10.6z"/>
			<path id="&lt;Path&gt;" class="s5" d="m264.8 56.9c4-0.3 8-0.7 12.1-0.8 12.2-0.5 19.2 6.8 17.9 18.8-1.5 14.7-3.1 29.4-4.7 44.2-1.1 10.4-5.5 14.8-15.8 15.8q-4.2 0.4-8.3 0.6c-10.6 0.6-15.7-2.9-18.4-12.8-3.9-14.6-7.7-29.3-11.4-43.9-2.7-10.7 3-19.3 13.8-20.7 4.9-0.6 9.9-0.8 14.8-1.1q0 0 0-0.1z"/>
			<path id="&lt;Path&gt;" class="s4" d="m289.7 392.6c-60.9 6.3-114.3-40.8-119.1-102.2-4.6-59.3 41.6-114.2 102.4-118.7 59.3-4.3 114.9 39.6 119.6 102.4 4.6 60.8-41.1 115.6-102.9 118.5z"/>
			<path id="&lt;Path&gt;" class="s9" d="m360.1 507c4.8 39.8-28.3 82.1-73.8 84.7-43.8 2.6-81.9-27.9-85.5-74.5-3.4-45.4 32.3-82.2 74.8-85.2 42.5-2.9 83.8 31.3 84.5 75z"/>
			<path id="&lt;Path&gt;" class="s6" d="m394.5 171.9c-4.8 0-7.1-3.3-9.9-5.6-7.8-6.8-7.9-8.1-2.4-17.1q9.1-15.1 18.3-30.1c1.1-1.9 2.2-3.7 3.6-5.4 4-5.2 7.5-5.8 12.5-1.7q9.6 8 18.7 16.6c4.6 4.3 4.9 9.1 0.3 12.8-12.3 9.8-24.9 19.2-37.5 28.8-1.1 0.9-2.7 1.3-3.6 1.7z"/>
			<path id="&lt;Path&gt;" class="s10" d="m318.3 123.8c1.2-9.6 2.5-20 3.8-30.4 0.7-4.9 1.3-9.8 2.1-14.6 1.3-6.8 4.7-9.4 11-7.7 8.3 2.3 16.5 5 24.6 8 5.5 2.1 7.3 6 4.7 11.1-7.2 14-14.8 27.8-22.4 41.6-1.4 2.5-3.8 4.1-6.9 3.9-5-0.3-9.6-2.1-13.9-4.6-2.2-1.4-3-3.8-3-7.3z"/>
			<path id="&lt;Path&gt;" class="s6" d="m467 388.6c-2.7 0.4-4.8-1-6.8-2.4-11.9-8.3-23.9-16.4-35.7-24.8-5.4-3.9-5.8-6.6-3.1-12.8 1-2.3 2.1-4.5 3.3-6.7 1.9-3.7 5.1-5.3 9.2-4.3 15 3.6 30 7.1 44.9 11.2 5.9 1.6 7.7 5.9 5.4 11.6-3.2 7.7-6.8 15.2-10.3 22.7-1.4 2.9-3.4 5.3-6.9 5.5z"/>
			<path id="&lt;Path&gt;" class="s11" d="m142 364.4c3.7-0.6 6 0.1 7.7 2.1 1.4 1.6 2.7 3.4 3.9 5.2 5.8 8.5 5.9 9-1.2 16.5-9.4 9.8-19 19.4-28.6 29-5.8 5.8-9.4 5.7-14.4-0.8-4.9-6.3-9.5-13-13.7-19.8-3.6-5.6-2.9-9.8 2.5-12.4 13.9-6.8 28-13 42.1-19.3 0.8-0.4 1.8-0.5 1.7-0.5z"/>
			<path id="&lt;Path&gt;" class="s12" d="m161.9 179.6c-0.6 5-5.2 9-9 13.2-3.2 3.4-7.5 1.4-11.2-0.5-12.1-6.2-24.2-12.3-36.3-18.6-8.7-4.7-9.3-7.8-3.2-15.9 4.4-5.9 8.8-11.9 13.6-17.6 4.5-5.2 8.8-5.4 13.3-0.6 10.1 10.9 19.9 22 29.9 33 1.4 1.6 2.8 3.3 2.9 7z"/>
			<path id="&lt;Path&gt;" class="s13" d="m433.1 228.2c-2.5 0.4-5.2-0.4-6.7-3-2.2-3.7-4.3-7.5-5.7-11.6-1.3-3.6 0.3-6.7 3.4-8.8 13-9 25.9-18 39-26.7 4.1-2.6 7.9-1.7 10.3 2.6 4.7 8.4 8.7 17.1 11.5 26.3 1.7 5.6-0.3 8.9-6.2 10.4-15 3.8-30 7.2-45.6 10.8z"/>
			<path id="&lt;Path&gt;" class="s14" d="m436.4 284c-0.7-11.3 1.1-13.3 12.4-15.1 12.5-2 24.9-4.6 37.4-6.5 9.4-1.5 13 1.6 12.4 10.8-0.4 6.5-0.2 13-0.2 19.5 0.1 9.4-3.2 12.4-12.2 10.8-13.1-2.3-26.2-4.7-39.2-7.3-9.3-1.9-10-2.9-10.6-12.2z"/>
			<path id="&lt;Path&gt;" class="s12" d="m215.3 134.4c0.2 3.9-1 6.9-4.4 8.8-2.4 1.3-4.9 2.5-7.3 4-4.5 2.7-8.4 1.8-11.5-2-9.4-11.5-18.8-23.1-27.8-34.8-4.5-5.9-3.6-10.4 2.5-13.9 7.2-4.3 14.6-8.1 22.1-11.8 5.2-2.5 9.1-1.6 10.8 3.2 5.6 15.4 10.5 31 15.6 46.5z"/>
			<path id="&lt;Path&gt;" class="s15" d="m79.9 300c11.1 0.6 22.5 0.1 34-0.1 10.8-0.1 17.4 8.2 15.3 18.8-0.7 3.4-2.9 5.4-6 6.6-14.1 5.5-28.2 11.1-42.4 16.4-5.7 2.2-9.8-0.1-11.1-6.1-2-8.4-3.5-16.9-5-25.4-0.9-5.5 1.8-8.8 7.4-9.6 2.4-0.3 4.9-0.3 7.8-0.6z"/>
			<path id="&lt;Path&gt;" class="s16" d="m121.6 257.2c-11.6-0.5-22.1-1-32.6-1.4-4.6-0.3-9.3-0.3-13.8-0.9-7.6-0.8-10.1-3.9-8.7-11.1 1.5-8.2 3.4-16.4 5.7-24.4 1.7-6.1 5.5-8.1 11.3-5.6q21 8.8 41.6 18.4c5.6 2.6 6.3 4.9 5 11.3-0.5 2.7-1.1 5.5-1.9 8.1-1.2 3.7-4.1 5.2-6.6 5.6z"/>
			<path id="&lt;Path&gt;" class="s12" d="m265.2 65c4-0.3 8-0.9 11.9-0.9 6.8 0.1 9.8 3.1 9.2 9.9-1.2 14.7-2.8 29.3-4.6 44-0.7 6.1-3.5 8.3-9.7 9.1-1.3 0.1-2.5 0.2-3.7 0.3-8.7 0.5-10.8-0.7-13.2-9.4q-4.5-16.4-8.6-33c-4.3-17.6-3.6-18.4 15-19.8q1.8-0.2 3.7-0.3 0 0 0 0.1z"/>
			<path id="&lt;Path&gt;" class="s0" d="m273.7 179.4c57.3-3.7 105.6 38.4 109.6 95.1 3.9 55.4-35.3 105.5-94.9 109.9-58.3 4.3-105.9-37.4-110-94.7-4.3-59.3 38.6-105.9 95.3-110.3z"/>
			<path id="&lt;Path&gt;" class="s17" d="m285.8 583.1c-36.3 3.7-73.6-24.8-76.2-66.1-2.4-36.6 22.2-72.6 65.3-76.2 41.7-3.5 73.9 27.1 77.1 65.3 3.7 44.2-31.4 75.7-66.2 77z"/>
			<path id="&lt;Path&gt;" class="s18" d="m374.7 276.1c4.9 49.6-35.7 97-88 100.4-50.1 3.2-96.9-36.5-100.1-88.5-3.2-50.2 37.1-97 88.7-100 50.9-2.8 97.6 37.7 99.4 88.1z"/>
			<path id="&lt;Path&gt;" class="s5" d="m277.7 469.7c20.8-3.6 44.5 13.3 46.4 39 1.8 25-17.9 45.2-40.6 46.5-23.6 1.3-44.5-16.5-45.8-40.1-1.4-23 16-45.3 40-45.4z"/>
			<path id="&lt;Path&gt;" class="s19" d="m274.8 197.7c46.6-4.5 87.6 33.5 90.8 78.6 3.3 46.2-33.6 87.7-78.8 90.8-46.2 3.2-87.5-33.1-90.8-78.8-3.4-45.9 33-88.7 78.8-90.6z"/>
			<path id="&lt;Path&gt;" class="s20" d="m283.2 546.1c-19.2 1.4-35.1-12.2-36.7-31.2-1.5-19.4 12.6-36 31.8-37.4 18.8-1.4 35.6 13.4 36.9 32.5 1.5 21.3-16.8 36.5-32 36.1z"/>
			<path id="&lt;Path&gt;" class="s21" d="m357.1 276.8c2.9 41.9-25.7 77.9-70.4 81.6-13.2 1.1-25.8-1.1-37-5.9-24.8-10.6-42.7-34.2-45.1-64.1-3.5-44.2 27.5-78.1 70.4-82.8 11.7-0.6 23 1.2 33.3 5.1 26.5 10 46.5 33.8 48.8 66.1z"/>
			<path id="&lt;Path&gt;" class="s22" d="m261.6 513.2c-0.8-10.4 7.8-20.1 18.2-20.6 9.9-0.5 19.5 7.9 20.4 17.7 0.9 10.4-7.4 20.1-17.9 20.8-10.8 0.8-19.9-7.1-20.7-17.9z"/>
			<path id="&lt;Path&gt;" class="s23" d="m281.3 521.8c-6.5 0.6-10-2.3-10.5-8.8-0.4-6 3.7-11.1 9.4-11.6 5.3-0.4 10.4 3.9 10.9 9.2 0.6 5.7-3.7 10.6-9.8 11.2z"/>
			<path id="&lt;Path&gt;" class="s24" d="m289.8 255.5l-21.4 51.7c-8.5-3.8-14.2-11.9-15-22.8-2-15.9 9.7-28.9 25.5-30.4 3.7-0.3 7.4 0.2 10.9 1.5z"/>
			<path id="&lt;Path&gt;" class="s24" d="m266.8 311.1l25.3-61.2c10.1 4.5 16.8 14.1 17.8 26.9 2.4 18.9-11.5 34.2-30.2 36-4.4 0.4-8.8-0.2-12.9-1.7z"/>
			<path id="&lt;Path&gt;" class="s25" d="m261.5 283.6c-0.9-10.7 6.9-20 17.6-20.9 10.8-0.9 20.1 7 21 17.6 1 10.7-7 20.1-17.6 21-10.7 1-20.1-7-21-17.7z"/>
			<path id="&lt;Path&gt;" class="s26" d="m357.1 276.8c2.9 41.9-25.7 77.9-70.4 81.6-13.2 1.1-25.8-1.1-37-5.9l18.7-45.3c4.4 2.1 9.6 2.9 15.2 2.4 15.4-1.4 26.5-14.5 25.4-29.9-0.8-10.7-9-20.5-19.2-24.2l18.5-44.8c26.5 10 46.5 33.8 48.8 66.1z"/>
		</g>
		<path id="&lt;Compound Path&gt;" class="s17" d="m147.3 622c2.3-4.6 0.7-8.3-4.7-11.1 2.3-4.3 3.5-6.5 5.8-10.8 8.7 4.3 18.3 11.3 19.7 21.7q0.4 3.9-1.3 7.9-10.1 23.6-20.1 47.3c-4.5 10.2-18.1 9.8-27.2 7.3-4.2-1-9.5-3.1-15.8-6.5-6.4-3.4-11.8-8.6-16.2-15.4-4.5-6.9-5-12.9-1.9-17.7q13.9-21.5 27.8-43c2.8-4.3 2.1-7.8-2-10.6-4.2-2.8-7.9-2.6-11.3 0.9q-20.2 28.2-40.4 56.3c-7.9-5.6-11.8-8.6-19.4-14.7q21.9-27 43.7-54c2.5-4.2 1.3-8.2-3.5-12.3-4.8-4.2-8.9-4.5-12.4-0.6q-16.8 18.4-33.6 36.9c-3.5 3.9-2.7 8.2 2.7 12.8-3.2 3.6-4.7 5.4-7.8 9-8.9-8.7-26.3-25.4-13.6-38.4q18.2-17.6 36.5-35.3c7.4-7.1 18.5-4.7 26.6-0.2 3.2 1.6 7.2 4.6 12 8.6 4.9 4.1 7.4 8.6 7.7 13.8 5.3-0.8 10.5 0.7 15.9 4.5 5.4 3.8 9.3 6.9 11.5 9.5q3.2 4 5.1 8.3c2.6 6.3 2.8 11.8 0.1 16.6q-12.2 21.7-24.4 43.3c-2.9 5-1.2 9.3 5.2 12.7 6.3 3.4 10.8 2.4 13.3-2.7q11-22 22-44.1z"/>
		<path id="&lt;Compound Path&gt;" class="s17" d="m264.4 641.4q-1-0.9-2-1.7c-4.4-3.4-8.8-5.6-13.4-6.3-5.2-0.9-9.6-1.2-13.1-0.9-9 0.3-19.9 3.6-22.6 13.4q-6.4 24.2-12.8 48.3c-1.5 5.6-5.5 7.6-12 5.7-6.5-1.9-9-5.5-7.4-10.4q7.7-24.1 15.5-48.2c1.6-5 5.8-6.4 12.6-4.5 1.4-4.6 2-6.9 3.4-11.6-12-3.7-29.4-6.2-35.2 8.1q-9.5 24.6-19 49.2c-2 5.1-0.5 10.6 4.8 16.2 5.4 5.6 11.5 9.5 18.1 11.5 6.7 2.1 12.2 3.1 16.6 3.2 9.5 0.8 22.9-1.5 25.3-12.6q5-25 10.1-50c1.1-5.1 4.5-7.1 10.4-6.1 5.7 1 8.2 3.9 7.6 8.7q0 0.1 0 0.1 0 0.1 0 0.3-0.2 1.4-0.4 2.8 0 0.3-0.1 0.5-1.5 32.4-3 64.8 0.1 0 0.3 0.1c9.5-1 18.2-5 18.9-15.2q2.3-25.3 4.6-50.6c0.5-5.5-2.1-10.3-7.2-14.8z"/>
		<path id="&lt;Compound Path&gt;" fill-rule="evenodd" class="s17" d="m341.2 715.9c-31 5.1-61.7 7.1-93.1 6.1q-0.2-0.1-0.3-0.1 1.5-32.4 3-64.8 0.1-0.2 0.1-0.5 0.1-1.6 0.4-3.1 0 0 0-0.1c1.5-6 5.7-10.6 11.1-13.7 2-1.1 4.2-2 6.4-2.6 3.3-1.2 6.8-1.8 10.6-1.9 8.3-0.3 12.4-0.6 20.7-1.4 9.9-1.2 19.9 1.9 26.1 10.1 1.8 2.5 3 5.2 3.6 8.2q5.7 31.9 11.4 63.8zm-63.8-49.7q-3.4-0.2-5.7 2 0.2 21.2 0.5 42.4c2.3 0 3.5 0 5.8-0.1q3.2-1.8 3.6-5.6 1.1-14.9 2-29.8c0.3-5.7-1.8-8.6-6.2-8.9zm38.1 41.7q-3-25-5.9-50-0.9-7.5-5.4-9.1c-2.9-1.1-5.3-1.6-7-1.4-6.2 0.5-9.2 0.7-15.4 0.9-3.5 0.2-5.8 1.1-6.8 3q-1.6 2.7-2.3 4.2c1.8-1 5.1-1.5 9.8-1.7 4.7-0.2 9.2 1.6 13.6 5.4 4.5 3.7 6.9 8.4 6.8 14.2q-0.3 15.3-0.8 30.6 0 3.1-2.3 5.3c6.3-0.5 9.4-0.7 15.7-1.4z"/>
		<path id="&lt;Compound Path&gt;" fill-rule="evenodd" class="s17" d="m429.5 685.1c-2.1 4.1-5.3 7-9.3 8.6-4.1 1.6-7.3 2.7-9.6 3.6-8 2.9-12.1 4.3-20.3 6.8-12.2 4.3-26.7 2.9-36.3-6.3-2.5-2.6-4.1-5.5-4.8-8.8q-4.5-21.4-9-42.7c-2.1-10 5.5-18.2 13.5-22.8 3-1.9 7.2-3.7 12.6-5.3 5.3-1.7 10.5-1.2 15.6 1.5 1.7-5.1 5.3-8.7 10.9-11 5.6-2.4 10.1-3.8 13.5-4.2 3.3-0.4 6.5-0.3 9.6 0.2 6.7 1.3 11.4 4.3 14 9.3q10.4 19.8 20.8 39.6c2.7 5.2 1.7 10.2-3.4 15.1 5.4-2.7 8-4.1 13.3-6.9 6.7-3.7 8.8-7.9 6.1-12.4q-12.1-21-24.2-42c-2.6-4.5-6.6-5.1-12-2.2-2.3-4.3-3.5-6.4-5.8-10.7 8.3-4.8 18.9-8 28.1-3.8q3.6 1.7 5.9 5.3 13.4 20.5 26.9 40.9c6 9.4-0.5 20.4-7.6 27-3.1 3-7.1 5.9-12.2 8.6-6 3.3-9 4.8-15 7.8-10.1 4.9-17.3 6.3-21.3 4.8zm-69.5-44.2q5.9 21.2 11.7 42.4c1.5 5.4 4.1 8.4 7.8 9 3.7 0.6 6.6 0.6 8.6 0 6-1.9 8.9-2.8 14.8-4.9-5.2 0.1-8.5-2.1-10-6.3q-7.6-23.1-15.3-46.1c-1.5-4.6-5.1-5.9-10.9-4.1-5.8 1.7-8 5-6.7 10zm65.7 35.2c5.6-4 7.3-8.2 5.3-12.4q-9.4-20.8-18.9-41.7c-2.2-4.7-5.7-5.9-10.6-3.8-4.9 2.1-6.5 5.3-4.7 9.8q8.6 21.5 17.2 42.9c1.9 4.9 5.8 6.7 11.7 5.2z"/>
		<path id="&lt;Compound Path&gt;" fill-rule="evenodd" class="s17" d="m554.8 583c4.2 4.1 5 9.2 2.4 15.4-9.5 17.9-21 31.7-41.3 37.6-8.8 2.3-14.9 0.8-18.3-4.1q-9.1-13-18.3-26c-6.2-9.2 0.5-20.4 6.9-27.3 2.7-3 6.2-6.4 10.7-10.4 4.5-3.9 10.3-7 17.6-9.5 7.4-2.5 13.2-1.9 17.4 2.1q11.4 11.1 22.9 22.2zm-38.4 33.5c3.3 4 8.3 3.3 15-2.4 6.7-5.7 8.2-10.7 4.7-14.5q-9.9-10.9-19.9-21.9c-3.5-3.8-8.1-3-14.1 2.1-5.9 5.1-7.4 9.5-4.2 13.5q9.3 11.6 18.5 23.2z"/>
	</g>
</svg>