<?xml version="1.0" encoding="utf-8"?>
<!-- Generator: Adobe Illustrator 27.6.1, SVG Export Plug-In . SVG Version: 6.00 Build 0)  -->
<svg version="1.1" id="Layer_1" xmlns="http://www.w3.org/2000/svg" xmlns:xlink="http://www.w3.org/1999/xlink" x="0px" y="0px"
	 viewBox="0 0 577 735" style="enable-background:new 0 0 577 735;" xml:space="preserve">
<style type="text/css">
	.st0{fill:#F5931F;stroke:#4F2E42;stroke-width:7;stroke-miterlimit:10;}
	.st1{fill:#CA1C25;stroke:#4F2E42;stroke-width:8;stroke-miterlimit:10;}
	.st2{fill:#FFFFFF;stroke:#4F2E42;stroke-width:10;stroke-miterlimit:10;}
	.st3{fill:#6F9E27;}
	.st4{fill:#4D2F42;}
	.st5{fill:#EA4139;}
	.st6{fill:#4F2E42;}
	.st7{fill:#F6931E;}
	.st8{fill:#EDEDED;stroke:#4F2E42;stroke-width:8;stroke-miterlimit:10;}
	.st9{fill:#DD7917;}
	.st10{fill:#F18F1E;stroke:#502D42;stroke-width:7;stroke-miterlimit:10;}
	.st11{fill:#6F9E27;stroke:#4D2F42;stroke-width:7;stroke-miterlimit:10;}
	.st12{fill:#4D2E42;}
	.st13{fill:#BD1013;}
	.st14{fill:#502D42;}
	.st15{fill:#F5921F;}
	.st16{fill:#502E41;}
	.st17{fill:#8B0F16;}
	.st18{fill-rule:evenodd;clip-rule:evenodd;fill:#BD1013;}
</style>
<g id="_x3C_Group_x3E__00000003790321022063828730000005189371825700236437_">
	<g id="_x3C_Group_x3E_">
		<path class="st0" d="M379,526.7c0,0,0-0.1,0-0.1c-15.9,6.4-32.6,11.4-50.1,14.7C185.8,568.7,47.6,474.6,20.4,331.5
			C-1.6,215.7,55.6,103.2,154,50v0.2c32-17.6,68.3-28.7,107.1-31.6C406.4,7.8,533,116.9,543.7,262.2
			C552.5,379.8,482.8,485,379,526.7z"/>
		<path class="st1" d="M513,220c-12.7-46.6-37.4-86.1-73.7-117.9c-1-0.9-2.5-1.9-4.1-2.7c0,0,0,0,0,0c-0.8-0.7-1.7-1.4-2.5-2.1
			c-1.2-0.9-2.3-1.8-3.4-2.7c-0.6-0.5-1.2-1-1.7-1.4c-0.8-0.6-1.6-1.2-2.4-1.8c-0.8-0.7-1.7-1.4-2.6-2c-0.9-0.7-1.9-1.3-2.9-1.9
			c-1.4-1-2.8-2-4.2-3c-0.1-0.1-0.1-0.1-0.2-0.1l-3.1-2.1l-1.5-0.9c-0.8-0.5-1.6-1.1-2.4-1.6c-1.2-0.8-2.5-1.6-3.8-2.3
			c-1.3-0.7-2.6-1.5-3.9-2.2c-40.3-23.4-87.8-35.3-137.7-31.5c-7.5,0.5-14.9,1.4-22.1,2.6c0,0-0.1,0-0.1,0c-5.3,1-10.5,2.1-15.7,3.4
			c-5.1,1.2-10.2,2.5-15.2,4.1c-0.7,0.2-1.5,0.5-2.2,0.7c-0.3,0.1-0.5,0.1-0.9,0.2c-0.1,0-0.2,0.1-0.3,0.1c-0.5,0.2-1,0.3-1.5,0.5
			c-0.6,0.2-1.2,0.4-1.9,0.6c-30.8,10.8-59,27.7-82.9,49.6c-2.3,2-4.5,4.1-6.6,6.2c-1.4,1.4-2.8,2.8-4.1,4.2
			c-2.8,2.9-5.5,5.8-8.2,8.9c-2.6,3.1-5.1,6.2-7.6,9.3c-10,12.7-18.5,26.1-25.6,39.9c-0.1,0.2-0.2,0.3-0.2,0.5c-1,2-2,3.9-2.9,5.9
			c-0.4,0.7-0.8,1.5-1.1,2.3c-0.7,1.5-1.3,3-2,4.5c-0.1,0.2-0.2,0.5-0.3,0.8C55,203,50,219.2,46.6,236.1c-0.2,1.1-0.4,2.3-0.7,3.4
			c-0.1,0.8-0.2,1.7-0.4,2.6c-0.3,1.6-0.5,3.2-0.7,4.9c-0.2,1.4-0.4,2.8-0.7,4.3c-0.4,4-0.8,8-1.2,12c-1.4,18.2-0.8,36.2,1.8,54.1
			c0.4,2.9,0.8,5.8,1.4,8.7c0.7,3.5,1.4,6.9,2.2,10.4c0.3,1.5,0.7,3,1.1,4.6c0.4,1.9,0.9,3.7,1.4,5.5l0,0.1c0.6,1.8,1.1,3.7,1.7,5.5
			c0.6,1.9,1.2,3.7,1.8,5.5c0.6,1.8,1.2,3.7,1.9,5.5c6.4,17.8,14.9,34.8,25.3,50.6c0.7,1.1,1.4,2.1,2.1,3.2c0.9,1.2,1.6,2.3,2.5,3.5
			c0.8,1.2,1.6,2.3,2.5,3.5c0.9,1.2,1.7,2.3,2.6,3.4c0.5,0.7,0.9,1.3,1.3,1.8c0.6,0.8,1.3,1.6,1.9,2.4c0.6,0.9,1.3,1.7,2,2.6
			c0.7,0.9,1.5,1.8,2.3,2.6c1.1,1.3,2.2,2.6,3.3,3.9c0.1,0.1,0.1,0.1,0.2,0.1l2.4,2.8l1.3,1.3c0.7,0.7,1.3,1.5,2,2.2
			c1,1.1,2,2.2,3.1,3.2c1.1,1,2.1,2.1,3.2,3.1c17.8,17.5,38.5,32.3,61.4,43.6c0,0,0,0,0,0c19.8,9.8,41.3,17,64.2,21
			c7.4,1.3,14.8,2.3,22.2,2.9c5.4,0.3,10.7,0.5,16.1,0.6c5.3,0.1,10.5,0.1,15.7-0.2c0.8,0,1.6-0.1,2.3-0.1c0.3,0,0.6,0,0.9,0
			c0.6-0.1,1.2-0.1,1.8-0.2c1.6-0.1,3.1-0.2,4.7-0.4c1.3-0.1,2.6-0.2,3.9-0.4c1.5-0.1,3-0.3,4.4-0.4c1.4-0.1,2.7-0.3,4-0.5
			c17.5-2.5,34.4-7,50.6-13.2c2.3-0.8,4.6-1.7,6.9-2.8c1-0.4,2-0.8,2.9-1.2c0.8-0.3,1.6-0.7,2.4-1.1c0,0,0,0,0,0c0,0,0.1,0,0.1-0.1
			c3.1-1.4,6.2-2.8,9.2-4.3c1.5-0.7,3-1.5,4.5-2.3c4.5-2.4,8.9-4.9,13.3-7.6c7.1-4.4,14-9,20.5-13.9c0.9-0.7,1.9-1.4,2.8-2.1
			c1.7-1.3,3.3-2.5,4.9-3.8c2.2-1.8,4.4-3.6,6.5-5.5c1.1-1,2.2-2,3.3-2.9c1-1,2.1-2,3.2-3c2.9-2.7,5.7-5.5,8.4-8.4
			c1.7-1.9,3.5-3.8,5.3-5.7c12.2-13.7,22.7-29,31.7-45.7c15.1-28.3,24.5-58.3,27.4-90.6C522.5,276.2,520.5,247.8,513,220z
			 M243.7,412.3c-18.1-5.2-34.3-13.7-48.1-24.9c-0.6-0.5-1.3-1.1-1.9-1.6c-15.9-13.4-28.5-30.4-36.7-49.8c0-0.1-0.1-0.2-0.1-0.3
			c-11.8-27.3-14.1-56.6-8.9-80.4c13.3-60,62.2-105.1,125.7-108.4c3.9-0.2,7.8-0.2,11.7-0.1c63.5,1.8,116.1,46.4,128.6,110.2
			c6.3,31.8,1.3,62.7-14.7,91.2c-19.7,34.9-49.9,56.3-88.3,66.4c0,0,0,0,0,0C289.7,419.4,266.8,419,243.7,412.3z"/>
		<g>
			<path id="_x3C_Path_x3E__00000078014131264334634790000004324414650915193773_" class="st2" d="M290.1,415.2
				c-68.3,6.3-137.8-45.2-142.9-123.7c-5.1-78.9,52.7-138.5,124.4-143.3c74.4-5.1,137.3,48.5,142.9,123.9
				C420.4,352.4,357.8,412,290.1,415.2z"/>
			<path id="_x3C_Path_x3E__00000021803524661470296780000001962815703388305306_" class="st3" d="M289.7,392.6
				c-60.9,6.3-114.3-40.8-119.1-102.2C166,231.1,212.2,176.2,273,171.7c59.3-4.3,114.9,39.6,119.6,102.4
				C397.2,334.9,351.5,389.7,289.7,392.6L289.7,392.6z"/>
			<path id="_x3C_Path_x3E__00000119814025519862266000000001942453083527625382_" class="st4" d="M273.7,179.4
				c57.3-3.7,105.6,38.4,109.6,95.1c3.9,55.4-35.3,105.5-94.9,109.9c-58.3,4.3-105.9-37.4-110-94.7
				C174.1,230.4,217,183.8,273.7,179.4L273.7,179.4z"/>
			<path id="_x3C_Path_x3E__00000156558118269707916340000009977119548090581439_" class="st5" d="M374.7,276.1
				c4.9,49.6-35.7,97-88,100.4c-50.1,3.2-96.9-36.5-100.1-88.5c-3.2-50.2,37.1-97,88.7-100C326.2,185.2,372.9,225.7,374.7,276.1
				L374.7,276.1z"/>
			<path id="_x3C_Path_x3E__00000090984299902668851730000015890860006333414319_" class="st6" d="M274.8,197.7
				c46.6-4.5,87.6,33.5,90.8,78.6c3.3,46.2-33.6,87.7-78.8,90.8c-46.2,3.2-87.5-33.1-90.8-78.8C192.6,242.4,229,199.6,274.8,197.7
				L274.8,197.7z"/>
			<path id="_x3C_Path_x3E__00000109022672527541788770000000000234051179785107_" class="st7" d="M357.1,276.8
				c2.9,41.9-25.7,77.9-70.4,81.6c-13.2,1.1-25.8-1.1-37-5.9c-24.8-10.6-42.7-34.2-45.1-64.1c-3.5-44.2,27.5-78.1,70.4-82.8
				c11.7-0.6,23,1.2,33.3,5.1C334.8,220.7,354.8,244.5,357.1,276.8L357.1,276.8z"/>
			<path id="_x3C_Path_x3E__00000112624705452384011000000016835380783148390568_" class="st8" d="M257.4,283.9
				c-1.1-13,8.4-24.3,21.3-25.3c13.1-1.1,24.4,8.5,25.5,21.3c1.2,13-8.5,24.4-21.3,25.5C269.9,306.6,258.5,296.9,257.4,283.9z"/>
			<path id="_x3C_Path_x3E__00000183942034927676748790000010657856904569594531_" class="st9" d="M357.1,276.8
				c2.9,41.9-25.7,77.9-70.4,81.6c-13.2,1.1-25.8-1.1-37-5.9l18.7-45.3c4.4,2.1,9.6,2.9,15.2,2.4c15.4-1.4,26.5-14.5,25.4-29.9
				c-0.8-10.7-9-20.5-19.2-24.2l18.5-44.8C334.8,220.7,354.8,244.5,357.1,276.8L357.1,276.8z"/>
		</g>
		<g>
			<path id="_x3C_Path_x3E__00000045591467389057702080000014114628986899122593_" class="st10" d="M369,80.3
				c4.2,1.8,8.6,3.2,12.6,5.3c6.9,3.6,8.4,8.2,4.2,14.8c-8.9,14.3-18.1,28.3-27.5,42.4c-3.9,5.8-7.9,6.6-14.6,4.2
				c-1.4-0.6-2.6-1.1-3.9-1.6c-9.1-4-10.6-6.3-8.5-16.4c2.6-12.7,5.4-25.4,8.4-38c4.8-20.1,5.9-20.6,25.5-12.3
				c1.3,0.5,2.6,1,3.9,1.6C369.1,80.2,369.1,80.2,369,80.3z"/>
			<path id="_x3C_Path_x3E__00000114761089739752175830000001623618437834319531_" class="st10" d="M445.5,134.6
				c3,3.4,6.3,6.7,9,10.3c4.6,6.3,3.9,11.1-2.7,15.2c-14.2,9-28.7,17.5-43.3,26c-6.1,3.5-10,2.5-15-2.6c-1-1.1-1.9-2.1-2.8-3.2
				c-6.4-7.6-6.8-10.3-0.5-18.5c7.9-10.2,16-20.4,24.2-30.5c13.1-16,14.3-15.9,28.4,0.1C443.7,132.3,444.6,133.4,445.5,134.6
				C445.5,134.5,445.5,134.5,445.5,134.6z"/>
			<path id="_x3C_Path_x3E__00000042014721051241690420000004315515570095905426_" class="st10" d="M490,212c1.4,4.4,3,8.7,4,13
				c1.6,7.6-0.9,11.7-8.7,12.8c-16.7,2.4-33.3,4.4-50.2,6.1c-7,0.8-10.1-1.8-12.6-8.5c-0.4-1.4-0.9-2.7-1.3-4
				c-2.8-9.6-2-12.2,7.1-17.1c11.4-6.1,22.9-12.1,34.5-18c18.5-9.3,19.6-8.7,25.9,11.6c0.5,1.3,0.9,2.6,1.3,4
				C490.1,211.9,490,211.9,490,212z"/>
			<path id="_x3C_Path_x3E__00000119838165868759819690000006387610354650060703_" class="st10" d="M500.8,301.2
				c-0.5,4.6-0.6,9.2-1.4,13.6c-1.5,7.6-5.5,10.4-13,8.4c-16.3-4.3-32.4-9-48.5-14c-6.7-2-8.6-5.6-8.3-12.7c0.1-1.5,0.3-2.9,0.4-4.2
				c1.2-9.9,3-12,13.2-12.9c12.9-1.2,25.8-2.2,38.8-3c20.7-1.3,21.4-0.3,19.2,20.8c-0.1,1.4-0.2,2.8-0.4,4.2
				C500.9,301.2,500.8,301.2,500.8,301.2z"/>
			<path id="_x3C_Path_x3E__00000165918301168302629810000000076340163549809538_" class="st10" d="M473.9,390.6
				c-2.2,4-4.1,8.2-6.6,11.9c-4.4,6.4-9.1,7.4-15.2,2.6c-13.3-10.3-26.2-21-39.2-31.9c-5.4-4.5-5.7-8.5-2.6-15
				c0.7-1.3,1.4-2.5,2-3.7c5-8.6,7.4-9.9,17.2-6.7c12.3,4,24.6,8.1,36.9,12.4c19.5,6.9,19.8,8.1,9.5,26.7
				C475.4,388.2,474.8,389.4,473.9,390.6C474,390.7,474,390.6,473.9,390.6z"/>
			<path id="_x3C_Path_x3E__00000044156397219732293740000015013411680148879249_" class="st10" d="M405.8,465.5
				c-3.8,2.6-7.4,5.4-11.3,7.6c-6.8,3.7-11.5,2.4-14.7-4.6c-7.1-15.3-13.7-30.7-20.3-46.3c-2.7-6.5-1.2-10.2,4.5-14.5
				c1.2-0.8,2.4-1.6,3.5-2.4c8.4-5.4,11.1-5.4,18.4,1.9c9.1,9.2,18.2,18.5,27.2,27.9c14.2,15.1,14,16.2-3.7,28.1
				C408.2,464,407.1,464.8,405.8,465.5C405.8,465.6,405.8,465.5,405.8,465.5z"/>
			<path id="_x3C_Path_x3E__00000168818661939107767450000004702565562121685408_" class="st10" d="M191.7,78.9
				c4.2-1.9,8.2-4.1,12.4-5.6c7.3-2.5,11.7-0.5,13.7,7.1c4.4,16.3,8.4,32.6,12.1,49c1.6,6.8-0.5,10.3-6.9,13.5
				c-1.4,0.6-2.6,1.2-3.9,1.8c-9.2,3.9-11.9,3.4-17.8-5c-7.5-10.6-14.8-21.3-22.1-32.1c-11.5-17.2-11-18.4,8.4-27.1
				c1.2-0.6,2.5-1.2,3.9-1.8C191.7,78.8,191.7,78.9,191.7,78.9z"/>
			<path id="_x3C_Path_x3E__00000023962198463725723370000013873644523894411159_" class="st10" d="M115.9,133.5
				c3-3.4,5.8-7.1,9-10.2c5.7-5.3,10.5-5.2,15.4,0.8c10.7,13,21,26.3,31.2,39.7c4.3,5.6,3.7,9.6-0.7,15.2c-1,1.1-1.9,2.2-2.8,3.2
				c-6.7,7.3-9.4,8-18.3,2.8c-11.1-6.6-22.2-13.3-33.3-20.2c-17.5-11-17.6-12.2-3.4-28.2C113.9,135.5,114.9,134.5,115.9,133.5
				C115.8,133.4,115.9,133.5,115.9,133.5z"/>
			<path id="_x3C_Path_x3E__00000051363164279170219620000007154505262113138579_" class="st10" d="M68.6,213.7
				c1.4-4.4,2.4-8.9,4.1-13c3-7.2,7.4-9.1,14.4-5.6c15.1,7.5,29.9,15.4,44.7,23.5c6.2,3.3,7.3,7.2,5.6,14.1
				c-0.4,1.4-0.8,2.7-1.2,4.1c-3.1,9.4-5.3,11.2-15.6,10c-12.9-1.4-25.8-3-38.6-4.8c-20.5-2.9-21-4-14.7-24.3
				c0.4-1.3,0.8-2.7,1.2-4.1C68.5,213.7,68.6,213.7,68.6,213.7z"/>
			<path id="_x3C_Path_x3E__00000094580964265228386450000007957975263136449457_" class="st10" d="M59,304.3
				c-0.4-4.6-1.1-9.1-1.2-13.6c0-7.8,3.4-11.2,11.2-10.6c16.8,1.2,33.5,2.8,50.3,4.7c7,0.7,9.5,3.9,10.5,11c0.1,1.5,0.3,2.9,0.4,4.2
				c0.7,9.9-0.7,12.3-10.6,15.2c-12.4,3.6-25,7-37.6,10.3c-20,5.1-21,4.4-22.8-16.9c-0.2-1.4-0.3-2.8-0.4-4.2
				C58.9,304.3,58.9,304.3,59,304.3z"/>
			<path id="_x3C_Path_x3E__00000047023646970265689470000001506331067001987492_" class="st10" d="M88.8,393.5
				c-2.4-3.9-5.1-7.7-7.1-11.6c-3.4-7-1.9-11.6,5.3-14.5c15.6-6.4,31.3-12.4,47.1-18.2c6.6-2.5,10.3-0.8,14.3,5.1
				c0.8,1.3,1.5,2.4,2.2,3.6c5,8.6,4.9,11.3-2.7,18.3c-9.6,8.7-19.3,17.4-29.1,25.9c-15.7,13.5-16.8,13.2-27.9-5
				c-0.8-1.2-1.5-2.4-2.2-3.6C88.7,393.5,88.7,393.5,88.8,393.5z"/>
			<path id="_x3C_Path_x3E__00000048463593267597662720000014596602135555538310_" class="st10" d="M150.7,462
				c-3.7-2.6-7.7-5-11.1-7.9c-5.9-5-6.4-9.9-0.9-15.4c11.7-12.1,23.8-23.8,36.1-35.4c5.1-4.9,9.1-4.8,15.2-1
				c1.2,0.9,2.3,1.6,3.5,2.4c8,5.9,9,8.5,4.8,17.9c-5.3,11.8-10.8,23.6-16.4,35.3c-9,18.6-10.2,18.8-27.6,6.5
				C153,463.7,151.8,462.9,150.7,462C150.7,462.1,150.7,462,150.7,462z"/>
			<path id="_x3C_Path_x3E__00000119095303852032240280000006966616344473983401_" class="st10" d="M281.7,60
				c4.6,0,9.2-0.3,13.6,0.1c7.7,0.7,10.9,4.4,9.5,12.1c-2.7,16.6-5.9,33.1-9.3,49.7c-1.4,6.9-4.8,9.1-11.9,9.5c-1.5,0-2.9,0-4.2,0
				c-9.9-0.2-12.2-1.8-14.1-11.9c-2.4-12.7-4.6-25.5-6.7-38.4c-3.3-20.4-2.4-21.3,18.9-21.1c1.4,0,2.8,0,4.2,0
				C281.7,59.9,281.7,59.9,281.7,60z"/>
			<path id="_x3C_Path_x3E__00000109027071704643440980000012771630242377367428_" class="st10" d="M325.7,501.5
				c-4.5,0.8-9,2-13.4,2.5c-7.7,0.7-11.5-2.3-11.7-10.1c-0.5-16.8-0.5-33.6-0.3-50.5c0-7,2.9-9.9,9.9-11.6c1.5-0.3,2.8-0.5,4.2-0.8
				c9.8-1.7,12.3-0.6,16.2,9c4.8,12,9.4,24.2,13.9,36.4c7.1,19.4,6.4,20.4-14.5,24.4c-1.3,0.3-2.7,0.6-4.2,0.8
				C325.7,501.6,325.7,501.6,325.7,501.5z"/>
			<path id="_x3C_Path_x3E__00000153675955149452370830000013201482438590637756_" class="st10" d="M231,498.8
				c-4.4-1.3-8.9-2.3-13.1-3.9c-7.2-2.9-9.2-7.3-5.8-14.3c7.3-15.2,14.9-30.1,22.8-45.1c3.2-6.2,7.1-7.4,14.1-5.8
				c1.4,0.4,2.7,0.8,4.1,1.2c9.5,3,11.2,5.1,10.3,15.4c-1.2,12.9-2.6,25.8-4.2,38.7c-2.6,20.5-3.6,21.1-24.1,15
				c-1.3-0.3-2.7-0.7-4.1-1.2C231,498.9,231,498.9,231,498.8z"/>
		</g>
		<g>
			<path id="_x3C_Path_x3E__00000137112963783702913310000013880185667766068152_" class="st11" d="M287.8,603
				c-51.1,5.4-94.2-36.9-98.4-81.9c-4.7-50.2,32.8-95.7,81.9-100.7c53.1-5.4,97.8,36,101.1,84.5C376.1,556.4,336.5,600.6,287.8,603
				L287.8,603z"/>
			<path id="_x3C_Path_x3E__00000036227852050587166170000014104184111637823934_" class="st12" d="M360.1,507
				c4.8,39.8-28.3,82.1-73.8,84.7c-43.8,2.6-81.9-27.9-85.5-74.5c-3.4-45.4,32.3-82.2,74.8-85.2C318.1,429.1,359.4,463.3,360.1,507
				L360.1,507z"/>
			<path id="_x3C_Path_x3E__00000027588299116277935110000005228490296330112154_" class="st13" d="M285.8,583.1
				c-36.3,3.7-73.6-24.8-76.2-66.1c-2.4-36.6,22.2-72.6,65.3-76.2c41.7-3.5,73.9,27.1,77.1,65.3
				C355.7,550.3,320.6,581.8,285.8,583.1z"/>
			<path id="_x3C_Path_x3E__00000147903452970255932490000012630133242503115663_" class="st14" d="M277.7,469.7
				c20.8-3.6,44.5,13.3,46.4,39c1.8,25-17.9,45.2-40.6,46.5c-23.6,1.3-44.5-16.5-45.8-40.1C236.3,492.1,253.7,469.8,277.7,469.7
				L277.7,469.7z"/>
			<path id="_x3C_Path_x3E__00000107589168196977369390000008964397150917296007_" class="st15" d="M283.2,546.1
				c-19.2,1.4-35.1-12.2-36.7-31.2c-1.5-19.4,12.6-36,31.8-37.4c18.8-1.4,35.6,13.4,36.9,32.5C316.7,531.3,298.4,546.5,283.2,546.1z
				"/>
			<path id="_x3C_Path_x3E__00000106136180196472542260000000361797699251617152_" class="st16" d="M261.6,513.2
				c-0.8-10.4,7.8-20.1,18.2-20.6c9.9-0.5,19.5,7.9,20.4,17.7c0.9,10.4-7.4,20.1-17.9,20.8C271.5,531.9,262.4,524,261.6,513.2z"/>
			<path id="_x3C_Path_x3E__00000025407910436697792100000013130486303981831593_" class="st17" d="M281.3,521.8
				c-6.5,0.6-10-2.3-10.5-8.8c-0.4-6,3.7-11.1,9.4-11.6c5.3-0.4,10.4,3.9,10.9,9.2C291.7,516.3,287.4,521.2,281.3,521.8z"/>
		</g>
	</g>
	<g>
		<path id="_x3C_Compound_Path_x3E_" class="st13" d="M147.3,622c2.3-4.6,0.7-8.3-4.7-11.1c2.3-4.3,3.5-6.5,5.8-10.8
			c8.7,4.3,18.3,11.3,19.7,21.7c0.3,2.6-0.2,5.2-1.3,7.9c-6.7,15.7-13.4,31.5-20.1,47.3c-4.5,10.2-18.1,9.8-27.2,7.3
			c-4.2-1-9.5-3.1-15.8-6.5c-6.4-3.4-11.8-8.6-16.2-15.4c-4.5-6.9-5-12.9-1.9-17.7c9.3-14.3,18.5-28.7,27.8-43
			c2.8-4.3,2.1-7.8-2-10.6c-4.2-2.8-7.9-2.6-11.3,0.9c-13.5,18.8-26.9,37.6-40.4,56.3c-7.9-5.6-11.8-8.6-19.4-14.7
			c14.6-18,29.2-36,43.7-54c2.5-4.2,1.3-8.2-3.5-12.3c-4.8-4.2-8.9-4.5-12.4-0.6c-11.2,12.3-22.4,24.6-33.6,36.9
			c-3.5,3.9-2.7,8.2,2.7,12.8c-3.2,3.6-4.7,5.4-7.8,9C20.5,616.7,3.1,600,15.8,587c12.1-11.7,24.3-23.5,36.5-35.3
			c7.4-7.1,18.5-4.7,26.6-0.2c3.2,1.6,7.2,4.6,12,8.6c4.9,4.1,7.4,8.6,7.7,13.8c5.3-0.8,10.5,0.7,15.9,4.5s9.3,6.9,11.5,9.5
			c2.1,2.7,3.8,5.4,5.1,8.3c2.6,6.3,2.8,11.8,0.1,16.6c-8.1,14.5-16.3,28.9-24.4,43.3c-2.9,5-1.2,9.3,5.2,12.7
			c6.3,3.4,10.8,2.4,13.3-2.7C132.6,651.4,140,636.7,147.3,622L147.3,622z"/>
		<path id="_x3C_Compound_Path_x3E__00000143576994881888380760000004760125833377919659_" class="st13" d="M264.4,641.4
			c-0.7-0.6-1.3-1.2-2-1.7c-4.4-3.4-8.8-5.6-13.4-6.3c-5.2-0.9-9.6-1.2-13.1-0.9c-9,0.3-19.9,3.6-22.6,13.4
			c-4.3,16.1-8.5,32.2-12.8,48.3c-1.5,5.6-5.5,7.6-12,5.7c-6.5-1.9-9-5.5-7.4-10.4c5.1-16.1,10.3-32.1,15.5-48.2
			c1.6-5,5.8-6.4,12.6-4.5c1.4-4.6,2-6.9,3.4-11.6c-12-3.7-29.4-6.2-35.2,8.1c-6.3,16.4-12.7,32.8-19,49.2c-2,5.1-0.5,10.6,4.8,16.2
			c5.4,5.6,11.5,9.5,18.1,11.5c6.7,2.1,12.2,3.1,16.6,3.2c9.5,0.8,22.9-1.5,25.3-12.6c3.3-16.7,6.7-33.3,10.1-50
			c1.1-5.1,4.5-7.1,10.4-6.1c5.7,1,8.2,3.9,7.6,8.7c0,0.1,0,0.1,0,0.1c0,0.1,0,0.2,0,0.3c-0.1,0.9-0.3,1.9-0.4,2.8
			c0,0.2,0,0.4-0.1,0.5c-1,21.6-2,43.2-3,64.8c0.1,0,0.2,0,0.3,0.1c9.5-1,18.2-5,18.9-15.2c1.5-16.9,3.1-33.7,4.6-50.6
			C272.1,650.7,269.5,645.9,264.4,641.4L264.4,641.4z"/>
		<path id="_x3C_Compound_Path_x3E__00000077311182375197165010000009574841042108519590_" class="st18" d="M341.2,715.9
			c-31,5.1-61.7,7.1-93.1,6.1c-0.1-0.1-0.2-0.1-0.3-0.1c1-21.6,2-43.2,3-64.8c0.1-0.1,0.1-0.3,0.1-0.5c0.1-1.1,0.2-2.1,0.4-3.1
			c0,0,0,0,0-0.1c1.5-6,5.7-10.6,11.1-13.7c2-1.1,4.2-2,6.4-2.6c3.3-1.2,6.8-1.8,10.6-1.9c8.3-0.3,12.4-0.6,20.7-1.4
			c9.9-1.2,19.9,1.9,26.1,10.1c1.8,2.5,3,5.2,3.6,8.2C333.6,673.4,337.4,694.6,341.2,715.9z M277.4,666.2c-2.3-0.1-4.2,0.5-5.7,2
			c0.1,14.1,0.3,28.3,0.5,42.4c2.3,0,3.5,0,5.8-0.1c2.1-1.2,3.3-3.1,3.6-5.6c0.7-9.9,1.4-19.9,2-29.8
			C283.9,669.4,281.8,666.5,277.4,666.2L277.4,666.2z M315.5,707.9c-2-16.7-4-33.3-5.9-50c-0.6-5-2.4-8-5.4-9.1
			c-2.9-1.1-5.3-1.6-7-1.4c-6.2,0.5-9.2,0.7-15.4,0.9c-3.5,0.2-5.8,1.1-6.8,3c-1.1,1.8-1.8,3.2-2.3,4.2c1.8-1,5.1-1.5,9.8-1.7
			c4.7-0.2,9.2,1.6,13.6,5.4c4.5,3.7,6.9,8.4,6.8,14.2c-0.2,10.2-0.5,20.4-0.8,30.6c0,2.1-0.8,3.8-2.3,5.3
			C306.1,708.8,309.2,708.6,315.5,707.9L315.5,707.9z"/>
		<path id="_x3C_Compound_Path_x3E__00000062170611768140546290000012860906019315575727_" class="st18" d="M429.5,685.1
			c-2.1,4.1-5.3,7-9.3,8.6c-4.1,1.6-7.3,2.7-9.6,3.6c-8,2.9-12.1,4.3-20.3,6.8c-12.2,4.3-26.7,2.9-36.3-6.3
			c-2.5-2.6-4.1-5.5-4.8-8.8c-3-14.3-6-28.5-9-42.7c-2.1-10,5.5-18.2,13.5-22.8c3-1.9,7.2-3.7,12.6-5.3c5.3-1.7,10.5-1.2,15.6,1.5
			c1.7-5.1,5.3-8.7,10.9-11c5.6-2.4,10.1-3.8,13.5-4.2c3.3-0.4,6.5-0.3,9.6,0.2c6.7,1.3,11.4,4.3,14,9.3
			c6.9,13.2,13.9,26.4,20.8,39.6c2.7,5.2,1.7,10.2-3.4,15.1c5.4-2.7,8-4.1,13.3-6.9c6.7-3.7,8.8-7.9,6.1-12.4
			c-8.1-14-16.1-28-24.2-42c-2.6-4.5-6.6-5.1-12-2.2c-2.3-4.3-3.5-6.4-5.8-10.7c8.3-4.8,18.9-8,28.1-3.8c2.4,1.1,4.4,2.9,5.9,5.3
			c8.9,13.7,17.9,27.3,26.9,40.9c6,9.4-0.5,20.4-7.6,27c-3.1,3-7.1,5.9-12.2,8.6c-6,3.3-9,4.8-15,7.8
			C440.7,685.2,433.5,686.6,429.5,685.1L429.5,685.1z M360,640.9c3.9,14.1,7.8,28.3,11.7,42.4c1.5,5.4,4.1,8.4,7.8,9
			c3.7,0.6,6.6,0.6,8.6,0c6-1.9,8.9-2.8,14.8-4.9c-5.2,0.1-8.5-2.1-10-6.3c-5.1-15.4-10.2-30.8-15.3-46.1c-1.5-4.6-5.1-5.9-10.9-4.1
			C360.9,632.6,358.7,635.9,360,640.9L360,640.9z M425.7,676.1c5.6-4,7.3-8.2,5.3-12.4c-6.3-13.9-12.6-27.8-18.9-41.7
			c-2.2-4.7-5.7-5.9-10.6-3.8c-4.9,2.1-6.5,5.3-4.7,9.8c5.7,14.3,11.5,28.6,17.2,42.9C415.9,675.8,419.8,677.6,425.7,676.1z"/>
		<path id="_x3C_Compound_Path_x3E__00000085222137539393287990000005800587592578214052_" class="st18" d="M554.8,583
			c4.2,4.1,5,9.2,2.4,15.4c-9.5,17.9-21,31.7-41.3,37.6c-8.8,2.3-14.9,0.8-18.3-4.1c-6.1-8.7-12.2-17.3-18.3-26
			c-6.2-9.2,0.5-20.4,6.9-27.3c2.7-3,6.2-6.4,10.7-10.4c4.5-3.9,10.3-7,17.6-9.5c7.4-2.5,13.2-1.9,17.4,2.1
			C539.5,568.2,547.1,575.6,554.8,583L554.8,583z M516.4,616.5c3.3,4,8.3,3.3,15-2.4s8.2-10.7,4.7-14.5
			c-6.6-7.3-13.2-14.6-19.9-21.9c-3.5-3.8-8.1-3-14.1,2.1c-5.9,5.1-7.4,9.5-4.2,13.5C504.1,601,510.3,608.8,516.4,616.5L516.4,616.5
			z"/>
	</g>
</g>
</svg>
