<?xml version="1.0" encoding="UTF-8"?>
<svg id="Layer_1" data-name="Layer 1" xmlns="http://www.w3.org/2000/svg" viewBox="0 0 631 20">
  <defs>
    <style>
      .cls-1 {
        fill: #fff;
      }
    </style>
  </defs>
  <path class="cls-1" d="m67.6,16.01c-17.42,0-34.84.05-52.26-.07-1.96-.01-4.16-.53-5.83-1.53-3.05-1.82-3.02-5.7.04-7.52,1.61-.96,3.7-1.57,5.58-1.58,34.84-.09,69.67-.07,104.51-.04,1.3,0,2.65.22,3.89.6,2.56.79,4.11,2.87,3.99,5.04-.12,2.09-2,4.18-4.48,4.66-1.44.28-2.95.28-4.43.28-17,.02-34.01.01-51.01.01,0,.04,0,.09,0,.13Z"/>
  <path class="cls-1" d="m375.97,15.95c-13.12,0-26.25.05-39.37-.05-2.26-.02-4.71-.2-6.72-1.1-3.52-1.56-3.76-5.89-.45-7.85,1.74-1.03,4.04-1.56,6.09-1.57,27.32-.1,54.64-.09,81.96-.02,1.59,0,3.47.31,4.68,1.21,1.3.96,2.71,2.8,2.69,4.23-.02,1.44-1.48,3.22-2.8,4.17-1.14.82-2.96.93-4.48.93-13.87.06-27.73.04-41.6.04Z"/>
  <path class="cls-1" d="m244.69,16.09c-5.45,0-10.9.02-16.35,0-3.56-.02-5.8-2.06-5.89-5.29-.09-3.23,2.3-5.58,5.9-5.59,10.82-.04,21.63-.04,32.45,0,3.64.01,6.03,2.27,6.04,5.48,0,3.22-2.41,5.4-6.05,5.41-5.37.02-10.73,0-16.1,0Z"/>
  <path class="cls-1" d="m454.84,5.19c3.05,0,6.11-.05,9.16.01,3.37.07,5.57,2.2,5.63,5.31.06,3.14-2.05,5.46-5.37,5.52-6.27.11-12.54.11-18.81.01-3.23-.05-5.57-2.57-5.47-5.52.11-3.05,2.42-5.26,5.71-5.32,3.05-.06,6.1-.01,9.16-.01Z"/>
  <path class="cls-1" d="m157.38,16.1c-2.39,0-4.78.06-7.17-.01-3.16-.09-5.29-2.27-5.32-5.31-.03-3.04,2.03-5.44,5.13-5.52,4.94-.14,9.89-.14,14.83,0,3.11.09,5.28,2.53,5.25,5.46-.03,3.12-2.26,5.31-5.55,5.38-2.39.05-4.78,0-7.17,0Z"/>
  <path class="cls-1" d="m612.6,16.1c-2.39,0-4.78.06-7.17-.01-2.92-.09-5.15-2.3-5.31-5.15-.16-2.74,1.96-5.51,4.83-5.62,5.26-.2,10.55-.22,15.81,0,2.9.12,4.78,2.8,4.62,5.73-.16,2.88-2.33,4.97-5.36,5.04-2.47.06-4.94.01-7.41.01Z"/>
  <path class="cls-1" d="m194.87,16.32c-1.8-.69-3.66-1.11-5.19-2.06-3.1-1.91-3.06-5.65-.11-7.77,2.83-2.03,8.36-2.06,11.26-.07,3.11,2.14,3.19,5.99-.06,7.89-1.69.99-3.77,1.31-5.9,2.01Z"/>
  <path class="cls-1" d="m581.02,16.32c-1.8-.69-3.66-1.11-5.19-2.06-3.1-1.91-3.06-5.65-.11-7.77,2.83-2.03,8.36-2.06,11.26-.07,3.11,2.14,3.19,5.99-.06,7.89-1.69.99-3.77,1.31-5.9,2.01Z"/>
  <path class="cls-1" d="m539.46,15.44c-5.45,0-10.9.02-16.35,0-3.56-.02-5.8-2.06-5.89-5.29-.09-3.23,2.3-5.58,5.9-5.59,10.82-.04,21.63-.04,32.45,0,3.64.01,6.03,2.27,6.04,5.48,0,3.22-2.41,5.4-6.05,5.41-5.37.02-10.73,0-16.1,0Z"/>
</svg>